<mxfile host="Electron" modified="2023-08-24T14:44:47.365Z" agent="Mozilla/5.0 (Macintosh; Intel Mac OS X 10_15_7) AppleWebKit/537.36 (KHTML, like Gecko) draw.io/21.6.8 Chrome/114.0.5735.289 Electron/25.5.0 Safari/537.36" etag="l9jmaVu1R_dqywfAmF5j" version="21.6.8" type="device" pages="2">
  <diagram name="LDM" id="9jhEgcksFTwkYuWYgeXO">
    <mxGraphModel dx="1387" dy="3861" grid="1" gridSize="10" guides="1" tooltips="1" connect="1" arrows="1" fold="1" page="1" pageScale="1" pageWidth="1169" pageHeight="827" math="0" shadow="0">
      <root>
        <mxCell id="0" />
        <mxCell id="1" parent="0" />
        <mxCell id="yXq6sMf3WYBbyTM89lPN-558" value="" style="group;html=1;fontFamily=Tahoma;" vertex="1" parent="1">
          <mxGeometry x="1784" y="-1282" width="142" height="71" as="geometry" />
        </mxCell>
        <mxCell id="yXq6sMf3WYBbyTM89lPN-559" value="" style="shape=stencil(nZBLDoAgDERP0z3SIyjew0SURgSD+Lu9kMZoXLhwN9O+tukAlrNpJg1SzDH4QW/URgNYgZTkjA4UkwJUgGXng+6DX1zLfmoymdXo17xh5zmRJ6Q42BWCfc2oJfdAr+Yv+AP9Cb7OJ3H/2JG1HNGz/84klThPVCc=);whiteSpace=wrap;fontSize=13;strokeColor=#C8C8C8;fillOpacity=100;fillColor=#4672C4;strokeWidth=0.4;spacing=0;rounded=1;absoluteArcSize=1;arcSize=0.4;fontFamily=Tahoma;" vertex="1" parent="yXq6sMf3WYBbyTM89lPN-558">
          <mxGeometry width="142" height="71" relative="1" as="geometry" />
        </mxCell>
        <mxCell id="yXq6sMf3WYBbyTM89lPN-560" value="Test Report" style="strokeColor=none;fillColor=none;overflow=visible;whiteSpace=wrap;fontSize=23.3;fontFamily=Tahoma;fontColor=#FEFFFF;align=center;spacing=0;fillOpacity=100;rounded=1;absoluteArcSize=1;arcSize=0.4;strokeWidth=0.4;" vertex="1" parent="yXq6sMf3WYBbyTM89lPN-558">
          <mxGeometry x="0.047" y="0.094" width="128.65200000000002" height="57.652" relative="1" as="geometry" />
        </mxCell>
        <mxCell id="yXq6sMf3WYBbyTM89lPN-561" value="" style="group;html=1;fontFamily=Tahoma;" vertex="1" parent="1">
          <mxGeometry x="1784" y="-1117" width="142" height="71" as="geometry" />
        </mxCell>
        <mxCell id="yXq6sMf3WYBbyTM89lPN-562" value="" style="shape=stencil(nZBLDoAgDERP0z3SIyjew0SURgSD+Lu9kMZoXLhwN9O+tukAlrNpJg1SzDH4QW/URgNYgZTkjA4UkwJUgGXng+6DX1zLfmoymdXo17xh5zmRJ6Q42BWCfc2oJfdAr+Yv+AP9Cb7OJ3H/2JG1HNGz/84klThPVCc=);whiteSpace=wrap;fontSize=13;strokeColor=#C8C8C8;fillOpacity=100;fillColor=#4672C4;strokeWidth=0.4;spacing=0;rounded=1;absoluteArcSize=1;arcSize=0.4;fontFamily=Tahoma;" vertex="1" parent="yXq6sMf3WYBbyTM89lPN-561">
          <mxGeometry width="142" height="71" relative="1" as="geometry" />
        </mxCell>
        <mxCell id="yXq6sMf3WYBbyTM89lPN-563" value="Test Group" style="strokeColor=none;fillColor=none;overflow=visible;whiteSpace=wrap;fontSize=23.3;fontFamily=Tahoma;fontColor=#FEFFFF;align=center;spacing=0;fillOpacity=100;rounded=1;absoluteArcSize=1;arcSize=0.4;strokeWidth=0.4;" vertex="1" parent="yXq6sMf3WYBbyTM89lPN-561">
          <mxGeometry x="0.047" y="0.094" width="128.65200000000002" height="57.652" relative="1" as="geometry" />
        </mxCell>
        <mxCell id="yXq6sMf3WYBbyTM89lPN-564" value="" style="group;html=1;fontFamily=Tahoma;" vertex="1" parent="1">
          <mxGeometry x="1784" y="-951" width="142" height="71" as="geometry" />
        </mxCell>
        <mxCell id="yXq6sMf3WYBbyTM89lPN-565" value="" style="shape=stencil(nZBLDoAgDERP0z3SIyjew0SURgSD+Lu9kMZoXLhwN9O+tukAlrNpJg1SzDH4QW/URgNYgZTkjA4UkwJUgGXng+6DX1zLfmoymdXo17xh5zmRJ6Q42BWCfc2oJfdAr+Yv+AP9Cb7OJ3H/2JG1HNGz/84klThPVCc=);whiteSpace=wrap;fontSize=13;strokeColor=#C8C8C8;fillOpacity=100;fillColor=#4672C4;strokeWidth=0.4;spacing=0;rounded=1;absoluteArcSize=1;arcSize=0.4;fontFamily=Tahoma;" vertex="1" parent="yXq6sMf3WYBbyTM89lPN-564">
          <mxGeometry width="142" height="71" relative="1" as="geometry" />
        </mxCell>
        <mxCell id="yXq6sMf3WYBbyTM89lPN-566" value="Test Result" style="strokeColor=none;fillColor=none;overflow=visible;whiteSpace=wrap;fontSize=23.3;fontFamily=Tahoma;fontColor=#FEFFFF;align=center;spacing=0;fillOpacity=100;rounded=1;absoluteArcSize=1;arcSize=0.4;strokeWidth=0.4;" vertex="1" parent="yXq6sMf3WYBbyTM89lPN-564">
          <mxGeometry x="0.047" y="0.094" width="128.65200000000002" height="57.652" relative="1" as="geometry" />
        </mxCell>
        <mxCell id="yXq6sMf3WYBbyTM89lPN-567" value="" style="html=1;jettySize=18;whiteSpace=wrap;fontSize=13;strokeColor=#4672C4;strokeWidth=1.7;rounded=1;arcSize=2.22;edgeStyle=orthogonalEdgeStyle;startArrow=none;endArrow=none;exitX=0.5;exitY=1.003;exitPerimeter=0;entryX=0.5;entryY=-0.003;entryPerimeter=0;lucidId=Nhvoc3zlSKCj;fontFamily=Tahoma;" edge="1" parent="1" source="yXq6sMf3WYBbyTM89lPN-558" target="yXq6sMf3WYBbyTM89lPN-561">
          <mxGeometry width="100" height="100" relative="1" as="geometry">
            <Array as="points" />
          </mxGeometry>
        </mxCell>
        <mxCell id="yXq6sMf3WYBbyTM89lPN-568" value="0..1" style="text;html=1;resizable=0;labelBackgroundColor=default;align=center;verticalAlign=middle;fontColor=#4672c4;fontSize=13.3;fontFamily=Tahoma;" vertex="1" parent="yXq6sMf3WYBbyTM89lPN-567">
          <mxGeometry x="-0.62" relative="1" as="geometry">
            <mxPoint as="offset" />
          </mxGeometry>
        </mxCell>
        <mxCell id="yXq6sMf3WYBbyTM89lPN-569" value="0..*" style="text;html=1;resizable=0;labelBackgroundColor=default;align=center;verticalAlign=middle;fontColor=#4672c4;fontSize=13.3;fontFamily=Tahoma;" vertex="1" parent="yXq6sMf3WYBbyTM89lPN-567">
          <mxGeometry x="0.6200000000000001" relative="1" as="geometry">
            <mxPoint as="offset" />
          </mxGeometry>
        </mxCell>
        <mxCell id="yXq6sMf3WYBbyTM89lPN-570" value="" style="html=1;jettySize=18;whiteSpace=wrap;fontSize=13;strokeColor=#4672C4;strokeWidth=1.7;rounded=1;arcSize=2.22;edgeStyle=orthogonalEdgeStyle;startArrow=none;endArrow=none;exitX=0.5;exitY=1.003;exitPerimeter=0;entryX=0.5;entryY=-0.003;entryPerimeter=0;lucidId=NhvoYxU6gUCv;fontFamily=Tahoma;" edge="1" parent="1" source="yXq6sMf3WYBbyTM89lPN-561" target="yXq6sMf3WYBbyTM89lPN-564">
          <mxGeometry width="100" height="100" relative="1" as="geometry">
            <Array as="points" />
          </mxGeometry>
        </mxCell>
        <mxCell id="yXq6sMf3WYBbyTM89lPN-571" value="0..1" style="text;html=1;resizable=0;labelBackgroundColor=default;align=center;verticalAlign=middle;fontColor=#4672C4;fontSize=13.3;fontFamily=Tahoma;" vertex="1" parent="yXq6sMf3WYBbyTM89lPN-570">
          <mxGeometry x="-0.62" relative="1" as="geometry">
            <mxPoint as="offset" />
          </mxGeometry>
        </mxCell>
        <mxCell id="yXq6sMf3WYBbyTM89lPN-572" value="0..*" style="text;html=1;resizable=0;labelBackgroundColor=default;align=center;verticalAlign=middle;fontColor=#4672C4;fontSize=13.3;fontFamily=Tahoma;" vertex="1" parent="yXq6sMf3WYBbyTM89lPN-570">
          <mxGeometry x="0.6200000000000001" relative="1" as="geometry">
            <mxPoint as="offset" />
          </mxGeometry>
        </mxCell>
        <mxCell id="yXq6sMf3WYBbyTM89lPN-573" value="" style="group;html=1;fontFamily=Tahoma;" vertex="1" parent="1">
          <mxGeometry x="1787" y="-1454" width="136" height="84" as="geometry" />
        </mxCell>
        <mxCell id="yXq6sMf3WYBbyTM89lPN-574" value="" style="shape=stencil(nZBLDoAgDERP0z3SIyjew0SURgSD+Lu9kMZoXLhwN9O+tukAlrNpJg1SzDH4QW/URgNYgZTkjA4UkwJUgGXng+6DX1zLfmoymdXo17xh5zmRJ6Q42BWCfc2oJfdAr+Yv+AP9Cb7OJ3H/2JG1HNGz/84klThPVCc=);whiteSpace=wrap;fontSize=13;strokeColor=#C8C8C8;fillOpacity=100;fillColor=#4672C4;strokeWidth=0.4;spacing=0;rounded=1;absoluteArcSize=1;arcSize=0.4;fontFamily=Tahoma;" vertex="1" parent="yXq6sMf3WYBbyTM89lPN-573">
          <mxGeometry width="142" height="71" relative="1" as="geometry" />
        </mxCell>
        <mxCell id="yXq6sMf3WYBbyTM89lPN-575" value="Test Request Summary" style="strokeColor=none;fillColor=none;overflow=visible;whiteSpace=wrap;fontSize=23.3;fontFamily=Tahoma;fontColor=#FEFFFF;align=center;spacing=0;fillOpacity=100;rounded=1;absoluteArcSize=1;arcSize=0.4;strokeWidth=0.4;" vertex="1" parent="yXq6sMf3WYBbyTM89lPN-573">
          <mxGeometry x="0.047" y="0.094" width="129.95" height="57.65" relative="1" as="geometry" />
        </mxCell>
        <mxCell id="yXq6sMf3WYBbyTM89lPN-576" value="" style="html=1;jettySize=18;whiteSpace=wrap;fontSize=13;strokeColor=#4672C4;strokeWidth=1.7;rounded=1;arcSize=2.22;edgeStyle=orthogonalEdgeStyle;startArrow=none;endArrow=none;exitX=0.5;exitY=1.003;exitPerimeter=0;entryX=0.5;entryY=-0.003;entryPerimeter=0;lucidId=NhvofOJQqQnH;fontFamily=Tahoma;" edge="1" parent="1" source="yXq6sMf3WYBbyTM89lPN-573" target="yXq6sMf3WYBbyTM89lPN-558">
          <mxGeometry width="100" height="100" relative="1" as="geometry">
            <Array as="points" />
          </mxGeometry>
        </mxCell>
        <mxCell id="yXq6sMf3WYBbyTM89lPN-577" value="0..1" style="text;html=1;resizable=0;labelBackgroundColor=default;align=center;verticalAlign=middle;fontColor=#4672C4;fontSize=13.3;fontFamily=Tahoma;" vertex="1" parent="yXq6sMf3WYBbyTM89lPN-576">
          <mxGeometry x="-0.62" relative="1" as="geometry">
            <mxPoint as="offset" />
          </mxGeometry>
        </mxCell>
        <mxCell id="yXq6sMf3WYBbyTM89lPN-578" value="0..*" style="text;html=1;resizable=0;labelBackgroundColor=default;align=center;verticalAlign=middle;fontColor=#4672C4;fontSize=13.3;fontFamily=Tahoma;" vertex="1" parent="yXq6sMf3WYBbyTM89lPN-576">
          <mxGeometry x="0.6200000000000001" relative="1" as="geometry">
            <mxPoint as="offset" />
          </mxGeometry>
        </mxCell>
        <mxCell id="yXq6sMf3WYBbyTM89lPN-579" value="" style="group;html=1;fontFamily=Tahoma;" vertex="1" parent="1">
          <mxGeometry x="1500" y="-1447" width="142" height="71" as="geometry" />
        </mxCell>
        <mxCell id="yXq6sMf3WYBbyTM89lPN-580" value="" style="shape=stencil(nZBLDoAgDERP0z3SIyjew0SURgSD+Lu9kMZoXLhwN9O+tukAlrNpJg1SzDH4QW/URgNYgZTkjA4UkwJUgGXng+6DX1zLfmoymdXo17xh5zmRJ6Q42BWCfc2oJfdAr+Yv+AP9Cb7OJ3H/2JG1HNGz/84klThPVCc=);whiteSpace=wrap;fontSize=13;strokeColor=#F4F7FB;fillOpacity=100;strokeWidth=1.3;spacing=0;rounded=1;absoluteArcSize=1;arcSize=1.2;fontFamily=Tahoma;" vertex="1" parent="yXq6sMf3WYBbyTM89lPN-579">
          <mxGeometry width="142" height="71" relative="1" as="geometry" />
        </mxCell>
        <mxCell id="yXq6sMf3WYBbyTM89lPN-581" value="Requesting HCP" style="strokeColor=none;fillColor=none;overflow=visible;whiteSpace=wrap;fontSize=23.3;fontFamily=Tahoma;fontColor=#bdd0e9;align=center;spacing=0;fillOpacity=100;rounded=1;absoluteArcSize=1;arcSize=1.2;strokeWidth=1.3;" vertex="1" parent="yXq6sMf3WYBbyTM89lPN-579">
          <mxGeometry x="0.047" y="0.094" width="128.65200000000002" height="57.652" relative="1" as="geometry" />
        </mxCell>
        <mxCell id="yXq6sMf3WYBbyTM89lPN-582" value="" style="html=1;jettySize=18;whiteSpace=wrap;fontSize=13;strokeColor=#bdd0e9;strokeWidth=1.7;rounded=1;arcSize=2.22;edgeStyle=orthogonalEdgeStyle;startArrow=none;endArrow=none;exitX=-0.001;exitY=0.5;exitPerimeter=0;entryX=1.004;entryY=0.5;entryPerimeter=0;lucidId=NhvoBdI6EIxl;fontFamily=Tahoma;" edge="1" parent="1" source="yXq6sMf3WYBbyTM89lPN-573" target="yXq6sMf3WYBbyTM89lPN-579">
          <mxGeometry width="100" height="100" relative="1" as="geometry">
            <Array as="points" />
          </mxGeometry>
        </mxCell>
        <mxCell id="yXq6sMf3WYBbyTM89lPN-583" value="1.1" style="text;html=1;resizable=0;labelBackgroundColor=default;align=center;verticalAlign=middle;fontColor=#3d64ac;fontSize=13.3;fontFamily=Tahoma;" vertex="1" parent="yXq6sMf3WYBbyTM89lPN-582">
          <mxGeometry x="-0.62" relative="1" as="geometry">
            <mxPoint as="offset" />
          </mxGeometry>
        </mxCell>
        <mxCell id="yXq6sMf3WYBbyTM89lPN-584" value="1..1" style="text;html=1;resizable=0;labelBackgroundColor=default;align=center;verticalAlign=middle;fontColor=#3d64ac;fontSize=13.3;fontFamily=Tahoma;" vertex="1" parent="yXq6sMf3WYBbyTM89lPN-582">
          <mxGeometry x="0.6000000000000001" relative="1" as="geometry">
            <mxPoint as="offset" />
          </mxGeometry>
        </mxCell>
        <mxCell id="yXq6sMf3WYBbyTM89lPN-585" value="" style="group;html=1;fontFamily=Tahoma;" vertex="1" parent="1">
          <mxGeometry x="1240" y="-1447" width="142" height="71" as="geometry" />
        </mxCell>
        <mxCell id="yXq6sMf3WYBbyTM89lPN-586" value="" style="shape=stencil(nZBLDoAgDERP0z3SIyjew0SURgSD+Lu9kMZoXLhwN9O+tukAlrNpJg1SzDH4QW/URgNYgZTkjA4UkwJUgGXng+6DX1zLfmoymdXo17xh5zmRJ6Q42BWCfc2oJfdAr+Yv+AP9Cb7OJ3H/2JG1HNGz/84klThPVCc=);whiteSpace=wrap;fontSize=13;strokeColor=#F4F7FB;fillOpacity=100;strokeWidth=1.3;spacing=0;rounded=1;absoluteArcSize=1;arcSize=1.2;fontFamily=Tahoma;" vertex="1" parent="yXq6sMf3WYBbyTM89lPN-585">
          <mxGeometry width="142" height="71" relative="1" as="geometry" />
        </mxCell>
        <mxCell id="yXq6sMf3WYBbyTM89lPN-587" value="Requesting Organisation" style="strokeColor=none;fillColor=none;overflow=visible;whiteSpace=wrap;fontSize=23.3;fontFamily=Tahoma;fontColor=#bdd0e9;align=center;spacing=0;fillOpacity=100;rounded=1;absoluteArcSize=1;arcSize=1.2;strokeWidth=1.3;" vertex="1" parent="yXq6sMf3WYBbyTM89lPN-585">
          <mxGeometry x="0.047" y="0.094" width="128.65200000000002" height="57.652" relative="1" as="geometry" />
        </mxCell>
        <mxCell id="yXq6sMf3WYBbyTM89lPN-588" value="" style="html=1;jettySize=18;whiteSpace=wrap;fontSize=13;strokeColor=#bdd0e9;strokeWidth=1.7;rounded=1;arcSize=2.22;edgeStyle=orthogonalEdgeStyle;startArrow=none;endArrow=none;exitX=-0.004;exitY=0.5;exitPerimeter=0;entryX=1.004;entryY=0.5;entryPerimeter=0;lucidId=Nhvo~_oBTgf0;fontFamily=Tahoma;" edge="1" parent="1" source="yXq6sMf3WYBbyTM89lPN-579" target="yXq6sMf3WYBbyTM89lPN-585">
          <mxGeometry width="100" height="100" relative="1" as="geometry">
            <Array as="points" />
          </mxGeometry>
        </mxCell>
        <mxCell id="yXq6sMf3WYBbyTM89lPN-589" value="&lt;div style=&quot;display: flex; justify-content: center; text-align: center; align-items: baseline; font-size: 0; line-height: 1.25;margin-top: -2px;&quot;&gt;&lt;span&gt;&lt;span style=&quot;font-size: 13.3px; color: rgb(61, 100, 172);&quot;&gt;1..&lt;/span&gt;&lt;span style=&quot;font-size: 13.3px; color: rgb(61, 100, 172);&quot;&gt;*&lt;/span&gt;&lt;/span&gt;&lt;/div&gt;" style="text;html=1;resizable=0;labelBackgroundColor=default;align=center;verticalAlign=middle;fontFamily=Tahoma;" vertex="1" parent="yXq6sMf3WYBbyTM89lPN-588">
          <mxGeometry x="-0.52" relative="1" as="geometry">
            <mxPoint as="offset" />
          </mxGeometry>
        </mxCell>
        <mxCell id="yXq6sMf3WYBbyTM89lPN-590" value="1..1" style="text;html=1;resizable=0;labelBackgroundColor=default;align=center;verticalAlign=middle;fontColor=#3d64ac;fontSize=13.3;fontFamily=Tahoma;" vertex="1" parent="yXq6sMf3WYBbyTM89lPN-588">
          <mxGeometry x="0.52" relative="1" as="geometry">
            <mxPoint as="offset" />
          </mxGeometry>
        </mxCell>
        <mxCell id="yXq6sMf3WYBbyTM89lPN-591" value="" style="group;html=1;fontFamily=Tahoma;" vertex="1" parent="1">
          <mxGeometry x="1500" y="-1282" width="142" height="71" as="geometry" />
        </mxCell>
        <mxCell id="yXq6sMf3WYBbyTM89lPN-592" value="" style="shape=stencil(nZBLDoAgDERP0z3SIyjew0SURgSD+Lu9kMZoXLhwN9O+tukAlrNpJg1SzDH4QW/URgNYgZTkjA4UkwJUgGXng+6DX1zLfmoymdXo17xh5zmRJ6Q42BWCfc2oJfdAr+Yv+AP9Cb7OJ3H/2JG1HNGz/84klThPVCc=);whiteSpace=wrap;fontSize=13;strokeColor=#C8C8C8;fillOpacity=100;fillColor=#4672c4;strokeWidth=0.4;spacing=0;rounded=1;absoluteArcSize=1;arcSize=0.4;fontFamily=Tahoma;" vertex="1" parent="yXq6sMf3WYBbyTM89lPN-591">
          <mxGeometry width="142" height="71" relative="1" as="geometry" />
        </mxCell>
        <mxCell id="yXq6sMf3WYBbyTM89lPN-593" value="Test Report Document" style="strokeColor=none;fillColor=none;overflow=visible;whiteSpace=wrap;fontSize=23.3;fontFamily=Tahoma;fontColor=#FEFFFF;align=center;spacing=0;fillOpacity=100;rounded=1;absoluteArcSize=1;arcSize=0.4;strokeWidth=0.4;" vertex="1" parent="yXq6sMf3WYBbyTM89lPN-591">
          <mxGeometry x="0.047" y="0.094" width="128.65200000000002" height="57.652" relative="1" as="geometry" />
        </mxCell>
        <mxCell id="yXq6sMf3WYBbyTM89lPN-594" value="" style="html=1;jettySize=18;whiteSpace=wrap;fontSize=13;strokeColor=#4672C4;strokeWidth=1.7;rounded=1;arcSize=2.22;edgeStyle=orthogonalEdgeStyle;startArrow=none;endArrow=none;exitX=0.5;exitY=-0.003;exitPerimeter=0;entryX=0.165;entryY=-0.003;entryPerimeter=0;lucidId=NhvoP6H3~UeC;fontFamily=Tahoma;" edge="1" parent="1" source="yXq6sMf3WYBbyTM89lPN-591" target="yXq6sMf3WYBbyTM89lPN-558">
          <mxGeometry width="100" height="100" relative="1" as="geometry">
            <Array as="points" />
          </mxGeometry>
        </mxCell>
        <mxCell id="yXq6sMf3WYBbyTM89lPN-595" value="0..1" style="text;html=1;resizable=0;labelBackgroundColor=default;align=center;verticalAlign=middle;fontColor=#4672C4;fontSize=13.3;fontFamily=Tahoma;" vertex="1" parent="yXq6sMf3WYBbyTM89lPN-594">
          <mxGeometry x="-0.86" relative="1" as="geometry">
            <mxPoint as="offset" />
          </mxGeometry>
        </mxCell>
        <mxCell id="yXq6sMf3WYBbyTM89lPN-596" value="1..1" style="text;html=1;resizable=0;labelBackgroundColor=default;align=center;verticalAlign=middle;fontColor=#4672C4;fontSize=13.3;fontFamily=Tahoma;" vertex="1" parent="yXq6sMf3WYBbyTM89lPN-594">
          <mxGeometry x="0.9178323016442556" relative="1" as="geometry">
            <mxPoint x="-7" y="-16" as="offset" />
          </mxGeometry>
        </mxCell>
        <mxCell id="yXq6sMf3WYBbyTM89lPN-597" value="" style="group;html=1;fontFamily=Tahoma;" vertex="1" parent="1">
          <mxGeometry x="1500" y="-1117" width="142" height="71" as="geometry" />
        </mxCell>
        <mxCell id="yXq6sMf3WYBbyTM89lPN-598" value="" style="shape=stencil(nZBLDoAgDERP0z3SIyjew0SURgSD+Lu9kMZoXLhwN9O+tukAlrNpJg1SzDH4QW/URgNYgZTkjA4UkwJUgGXng+6DX1zLfmoymdXo17xh5zmRJ6Q42BWCfc2oJfdAr+Yv+AP9Cb7OJ3H/2JG1HNGz/84klThPVCc=);whiteSpace=wrap;fontSize=13;strokeColor=#C8C8C8;fillOpacity=100;fillColor=#4672c4;strokeWidth=0.4;spacing=0;rounded=1;absoluteArcSize=1;arcSize=0.4;fontFamily=Tahoma;" vertex="1" parent="yXq6sMf3WYBbyTM89lPN-597">
          <mxGeometry width="142" height="71" relative="1" as="geometry" />
        </mxCell>
        <mxCell id="yXq6sMf3WYBbyTM89lPN-599" value="Test Result Document" style="strokeColor=none;fillColor=none;overflow=visible;whiteSpace=wrap;fontSize=23.3;fontFamily=Tahoma;fontColor=#FEFFFF;align=center;spacing=0;fillOpacity=100;rounded=1;absoluteArcSize=1;arcSize=0.4;strokeWidth=0.4;" vertex="1" parent="yXq6sMf3WYBbyTM89lPN-597">
          <mxGeometry x="0.047" y="0.094" width="128.65200000000002" height="57.652" relative="1" as="geometry" />
        </mxCell>
        <mxCell id="yXq6sMf3WYBbyTM89lPN-600" value="" style="html=1;jettySize=18;whiteSpace=wrap;fontSize=13;strokeColor=#4672C4;strokeWidth=1.7;rounded=1;arcSize=2.22;edgeStyle=orthogonalEdgeStyle;startArrow=none;endArrow=none;exitX=0.165;exitY=1.003;exitPerimeter=0;entryX=0.5;entryY=-0.003;entryPerimeter=0;lucidId=NhvojaQhkcwt;fontFamily=Tahoma;" edge="1" parent="1" source="yXq6sMf3WYBbyTM89lPN-558" target="yXq6sMf3WYBbyTM89lPN-597">
          <mxGeometry width="100" height="100" relative="1" as="geometry">
            <Array as="points" />
          </mxGeometry>
        </mxCell>
        <mxCell id="yXq6sMf3WYBbyTM89lPN-601" value="1..1" style="text;html=1;resizable=0;labelBackgroundColor=default;align=center;verticalAlign=middle;fontColor=#4672C4;fontSize=13.3;fontFamily=Tahoma;" vertex="1" parent="yXq6sMf3WYBbyTM89lPN-600">
          <mxGeometry x="-0.88" relative="1" as="geometry">
            <mxPoint as="offset" />
          </mxGeometry>
        </mxCell>
        <mxCell id="yXq6sMf3WYBbyTM89lPN-602" value="0..*" style="text;html=1;resizable=0;labelBackgroundColor=default;align=center;verticalAlign=middle;fontColor=#4672C4;fontSize=13.3;fontFamily=Tahoma;" vertex="1" parent="yXq6sMf3WYBbyTM89lPN-600">
          <mxGeometry x="0.8799999999999999" relative="1" as="geometry">
            <mxPoint as="offset" />
          </mxGeometry>
        </mxCell>
        <mxCell id="yXq6sMf3WYBbyTM89lPN-603" value="" style="html=1;jettySize=18;whiteSpace=wrap;fontSize=13;strokeColor=#4672C4;strokeWidth=1.7;rounded=1;arcSize=2.22;edgeStyle=orthogonalEdgeStyle;startArrow=none;endArrow=none;exitX=-0.001;exitY=0.5;exitPerimeter=0;entryX=1.001;entryY=0.5;entryPerimeter=0;lucidId=NhvoO1OlK38Z;fontFamily=Tahoma;" edge="1" parent="1" source="yXq6sMf3WYBbyTM89lPN-561" target="yXq6sMf3WYBbyTM89lPN-597">
          <mxGeometry width="100" height="100" relative="1" as="geometry">
            <Array as="points" />
          </mxGeometry>
        </mxCell>
        <mxCell id="yXq6sMf3WYBbyTM89lPN-604" value="0..1" style="text;html=1;resizable=0;labelBackgroundColor=default;align=center;verticalAlign=middle;fontColor=#4672C4;fontSize=13.3;fontFamily=Tahoma;" vertex="1" parent="yXq6sMf3WYBbyTM89lPN-603">
          <mxGeometry x="-0.6799999999999999" relative="1" as="geometry">
            <mxPoint as="offset" />
          </mxGeometry>
        </mxCell>
        <mxCell id="yXq6sMf3WYBbyTM89lPN-605" value="0..*" style="text;html=1;resizable=0;labelBackgroundColor=default;align=center;verticalAlign=middle;fontColor=#4672C4;fontSize=13.3;fontFamily=Tahoma;" vertex="1" parent="yXq6sMf3WYBbyTM89lPN-603">
          <mxGeometry x="0.6799999999999999" relative="1" as="geometry">
            <mxPoint as="offset" />
          </mxGeometry>
        </mxCell>
        <mxCell id="yXq6sMf3WYBbyTM89lPN-606" value="" style="html=1;jettySize=18;whiteSpace=wrap;fontSize=13;strokeColor=#4672C4;strokeWidth=1.7;rounded=1;arcSize=2.22;edgeStyle=orthogonalEdgeStyle;startArrow=none;endArrow=none;exitX=0.165;exitY=-0.003;exitPerimeter=0;entryX=0.5;entryY=1.003;entryPerimeter=0;lucidId=Nhvo2mhm8sQn;fontFamily=Tahoma;" edge="1" parent="1" source="yXq6sMf3WYBbyTM89lPN-564" target="yXq6sMf3WYBbyTM89lPN-597">
          <mxGeometry width="100" height="100" relative="1" as="geometry">
            <Array as="points" />
          </mxGeometry>
        </mxCell>
        <mxCell id="yXq6sMf3WYBbyTM89lPN-607" value="0..1" style="text;html=1;resizable=0;labelBackgroundColor=default;align=center;verticalAlign=middle;fontColor=#4672C4;fontSize=13.3;fontFamily=Tahoma;" vertex="1" parent="yXq6sMf3WYBbyTM89lPN-606">
          <mxGeometry x="-0.9277985514388516" relative="1" as="geometry">
            <mxPoint as="offset" />
          </mxGeometry>
        </mxCell>
        <mxCell id="yXq6sMf3WYBbyTM89lPN-608" value="0..*" style="text;html=1;resizable=0;labelBackgroundColor=default;align=center;verticalAlign=middle;fontColor=#4672C4;fontSize=13.3;fontFamily=Tahoma;" vertex="1" parent="yXq6sMf3WYBbyTM89lPN-606">
          <mxGeometry x="0.8799999999999999" relative="1" as="geometry">
            <mxPoint as="offset" />
          </mxGeometry>
        </mxCell>
        <mxCell id="yXq6sMf3WYBbyTM89lPN-609" value="" style="group;html=1;fontFamily=Tahoma;" vertex="1" parent="1">
          <mxGeometry x="2067" y="-1117" width="142" height="71" as="geometry" />
        </mxCell>
        <mxCell id="yXq6sMf3WYBbyTM89lPN-610" value="" style="shape=stencil(nZBLDoAgDERP0z3SIyjew0SURgSD+Lu9kMZoXLhwN9O+tukAlrNpJg1SzDH4QW/URgNYgZTkjA4UkwJUgGXng+6DX1zLfmoymdXo17xh5zmRJ6Q42BWCfc2oJfdAr+Yv+AP9Cb7OJ3H/2JG1HNGz/84klThPVCc=);whiteSpace=wrap;fontSize=13;strokeColor=#C8C8C8;fillOpacity=100;fillColor=#4672C4;strokeWidth=0.4;spacing=0;rounded=1;absoluteArcSize=1;arcSize=0.4;fontFamily=Tahoma;" vertex="1" parent="yXq6sMf3WYBbyTM89lPN-609">
          <mxGeometry width="142" height="71" relative="1" as="geometry" />
        </mxCell>
        <mxCell id="yXq6sMf3WYBbyTM89lPN-611" value="Specimen" style="strokeColor=none;fillColor=none;overflow=visible;whiteSpace=wrap;fontSize=23.3;fontFamily=Tahoma;fontColor=#FEFFFF;align=center;spacing=0;fillOpacity=100;rounded=1;absoluteArcSize=1;arcSize=0.4;strokeWidth=0.4;" vertex="1" parent="yXq6sMf3WYBbyTM89lPN-609">
          <mxGeometry x="0.047" y="0.094" width="128.65200000000002" height="57.652" relative="1" as="geometry" />
        </mxCell>
        <mxCell id="yXq6sMf3WYBbyTM89lPN-612" value="" style="html=1;jettySize=18;whiteSpace=wrap;fontSize=13;strokeColor=#4672C4;strokeWidth=1.7;rounded=1;arcSize=2.22;edgeStyle=orthogonalEdgeStyle;startArrow=none;endArrow=none;exitX=-0.001;exitY=0.5;exitPerimeter=0;entryX=1.001;entryY=0.5;entryPerimeter=0;lucidId=NhvoUalM0ibx;fontFamily=Tahoma;" edge="1" parent="1" source="yXq6sMf3WYBbyTM89lPN-609" target="yXq6sMf3WYBbyTM89lPN-561">
          <mxGeometry width="100" height="100" relative="1" as="geometry">
            <Array as="points" />
          </mxGeometry>
        </mxCell>
        <mxCell id="yXq6sMf3WYBbyTM89lPN-613" value="0..*" style="text;html=1;resizable=0;labelBackgroundColor=default;align=center;verticalAlign=middle;fontColor=#4672C4;fontSize=13.3;fontFamily=Tahoma;" vertex="1" parent="yXq6sMf3WYBbyTM89lPN-612">
          <mxGeometry x="-0.6799999999999999" relative="1" as="geometry">
            <mxPoint as="offset" />
          </mxGeometry>
        </mxCell>
        <mxCell id="yXq6sMf3WYBbyTM89lPN-614" value="0..*" style="text;html=1;resizable=0;labelBackgroundColor=default;align=center;verticalAlign=middle;fontColor=#4672C4;fontSize=13.3;fontFamily=Tahoma;" vertex="1" parent="yXq6sMf3WYBbyTM89lPN-612">
          <mxGeometry x="0.6799999999999999" relative="1" as="geometry">
            <mxPoint as="offset" />
          </mxGeometry>
        </mxCell>
        <mxCell id="yXq6sMf3WYBbyTM89lPN-615" value="" style="html=1;jettySize=18;whiteSpace=wrap;fontSize=13;strokeColor=#4672C4;strokeWidth=1.7;rounded=1;arcSize=2.22;edgeStyle=orthogonalEdgeStyle;startArrow=none;endArrow=none;exitX=0.5;exitY=-0.003;exitPerimeter=0;entryX=0.835;entryY=1.003;entryPerimeter=0;lucidId=NhvolH72QAsa;fontFamily=Tahoma;" edge="1" parent="1" source="yXq6sMf3WYBbyTM89lPN-609" target="yXq6sMf3WYBbyTM89lPN-558">
          <mxGeometry width="100" height="100" relative="1" as="geometry">
            <Array as="points" />
          </mxGeometry>
        </mxCell>
        <mxCell id="yXq6sMf3WYBbyTM89lPN-616" value="0..*" style="text;html=1;resizable=0;labelBackgroundColor=default;align=center;verticalAlign=middle;fontColor=#4672C4;fontSize=13.3;fontFamily=Tahoma;" vertex="1" parent="yXq6sMf3WYBbyTM89lPN-615">
          <mxGeometry x="-0.88" relative="1" as="geometry">
            <mxPoint as="offset" />
          </mxGeometry>
        </mxCell>
        <mxCell id="yXq6sMf3WYBbyTM89lPN-617" value="0..*" style="text;html=1;resizable=0;labelBackgroundColor=default;align=center;verticalAlign=middle;fontColor=#4672C4;fontSize=13.3;fontFamily=Tahoma;" vertex="1" parent="yXq6sMf3WYBbyTM89lPN-615">
          <mxGeometry x="0.8799999999999999" relative="1" as="geometry">
            <mxPoint as="offset" />
          </mxGeometry>
        </mxCell>
        <mxCell id="yXq6sMf3WYBbyTM89lPN-618" value="" style="html=1;jettySize=18;whiteSpace=wrap;fontSize=13;strokeColor=#4672C4;strokeWidth=1.7;rounded=1;arcSize=2.22;edgeStyle=orthogonalEdgeStyle;startArrow=none;endArrow=none;exitX=0.5;exitY=1.003;exitPerimeter=0;entryX=0.835;entryY=-0.003;entryPerimeter=0;lucidId=Nhvo6PIFMcrC;fontFamily=Tahoma;" edge="1" parent="1" source="yXq6sMf3WYBbyTM89lPN-609" target="yXq6sMf3WYBbyTM89lPN-564">
          <mxGeometry width="100" height="100" relative="1" as="geometry">
            <Array as="points" />
          </mxGeometry>
        </mxCell>
        <mxCell id="yXq6sMf3WYBbyTM89lPN-619" value="0..*" style="text;html=1;resizable=0;labelBackgroundColor=default;align=center;verticalAlign=middle;fontColor=#4672C4;fontSize=13.3;fontFamily=Tahoma;" vertex="1" parent="yXq6sMf3WYBbyTM89lPN-618">
          <mxGeometry x="-0.88" relative="1" as="geometry">
            <mxPoint as="offset" />
          </mxGeometry>
        </mxCell>
        <mxCell id="yXq6sMf3WYBbyTM89lPN-620" value="0..*" style="text;html=1;resizable=0;labelBackgroundColor=default;align=center;verticalAlign=middle;fontColor=#4672C4;fontSize=13.3;fontFamily=Tahoma;" vertex="1" parent="yXq6sMf3WYBbyTM89lPN-618">
          <mxGeometry x="0.8999999999999999" relative="1" as="geometry">
            <mxPoint as="offset" />
          </mxGeometry>
        </mxCell>
        <mxCell id="yXq6sMf3WYBbyTM89lPN-621" value="" style="group;html=1;fontFamily=Tahoma;" vertex="1" parent="1">
          <mxGeometry x="2327" y="-1117" width="142" height="71" as="geometry" />
        </mxCell>
        <mxCell id="yXq6sMf3WYBbyTM89lPN-622" value="" style="shape=stencil(nZBLDoAgDERP0z3SIyjew0SURgSD+Lu9kMZoXLhwN9O+tukAlrNpJg1SzDH4QW/URgNYgZTkjA4UkwJUgGXng+6DX1zLfmoymdXo17xh5zmRJ6Q42BWCfc2oJfdAr+Yv+AP9Cb7OJ3H/2JG1HNGz/84klThPVCc=);whiteSpace=wrap;fontSize=13;strokeColor=#F4F7FB;fillOpacity=100;strokeWidth=1.3;spacing=0;rounded=1;absoluteArcSize=1;arcSize=1.2;fontFamily=Tahoma;" vertex="1" parent="yXq6sMf3WYBbyTM89lPN-621">
          <mxGeometry width="142" height="71" relative="1" as="geometry" />
        </mxCell>
        <mxCell id="yXq6sMf3WYBbyTM89lPN-623" value="Specimen Collecting HCP" style="strokeColor=none;fillColor=none;overflow=visible;whiteSpace=wrap;fontSize=23.3;fontFamily=Tahoma;fontColor=#bdd0e9;align=center;spacing=0;fillOpacity=100;rounded=1;absoluteArcSize=1;arcSize=1.2;strokeWidth=1.3;" vertex="1" parent="yXq6sMf3WYBbyTM89lPN-621">
          <mxGeometry x="0.047" y="0.094" width="128.65200000000002" height="57.652" relative="1" as="geometry" />
        </mxCell>
        <mxCell id="yXq6sMf3WYBbyTM89lPN-624" value="" style="html=1;jettySize=18;whiteSpace=wrap;fontSize=13;strokeColor=#bdd0e9;strokeWidth=1.7;rounded=1;arcSize=2.22;edgeStyle=orthogonalEdgeStyle;startArrow=none;endArrow=none;exitX=-0.004;exitY=0.5;exitPerimeter=0;entryX=1.001;entryY=0.5;entryPerimeter=0;lucidId=NhvoKjJeUlFi;fontFamily=Tahoma;" edge="1" parent="1" source="yXq6sMf3WYBbyTM89lPN-621" target="yXq6sMf3WYBbyTM89lPN-609">
          <mxGeometry width="100" height="100" relative="1" as="geometry">
            <Array as="points" />
          </mxGeometry>
        </mxCell>
        <mxCell id="yXq6sMf3WYBbyTM89lPN-625" value="0..1" style="text;html=1;resizable=0;labelBackgroundColor=default;align=center;verticalAlign=middle;fontColor=#3d64ac;fontSize=13.3;fontFamily=Tahoma;" vertex="1" parent="yXq6sMf3WYBbyTM89lPN-624">
          <mxGeometry x="-0.52" relative="1" as="geometry">
            <mxPoint as="offset" />
          </mxGeometry>
        </mxCell>
        <mxCell id="yXq6sMf3WYBbyTM89lPN-626" value="1..1" style="text;html=1;resizable=0;labelBackgroundColor=default;align=center;verticalAlign=middle;fontColor=#3d64ac;fontSize=13.3;fontFamily=Tahoma;" vertex="1" parent="yXq6sMf3WYBbyTM89lPN-624">
          <mxGeometry x="0.52" relative="1" as="geometry">
            <mxPoint as="offset" />
          </mxGeometry>
        </mxCell>
        <mxCell id="yXq6sMf3WYBbyTM89lPN-627" value="" style="group;html=1;fontFamily=Tahoma;" vertex="1" parent="1">
          <mxGeometry x="2327" y="-951" width="142" height="71" as="geometry" />
        </mxCell>
        <mxCell id="yXq6sMf3WYBbyTM89lPN-628" value="" style="shape=stencil(nZBLDoAgDERP0z3SIyjew0SURgSD+Lu9kMZoXLhwN9O+tukAlrNpJg1SzDH4QW/URgNYgZTkjA4UkwJUgGXng+6DX1zLfmoymdXo17xh5zmRJ6Q42BWCfc2oJfdAr+Yv+AP9Cb7OJ3H/2JG1HNGz/84klThPVCc=);whiteSpace=wrap;fontSize=13;strokeColor=#F4F7FB;fillOpacity=100;strokeWidth=1.3;spacing=0;rounded=1;absoluteArcSize=1;arcSize=1.2;fontFamily=Tahoma;" vertex="1" parent="yXq6sMf3WYBbyTM89lPN-627">
          <mxGeometry width="142" height="71" relative="1" as="geometry" />
        </mxCell>
        <mxCell id="yXq6sMf3WYBbyTM89lPN-629" value="Specimen Collecting Organisation" style="strokeColor=none;fillColor=none;overflow=visible;whiteSpace=wrap;fontSize=23.3;fontFamily=Tahoma;fontColor=#bdd0e9;align=center;spacing=0;fillOpacity=100;rounded=1;absoluteArcSize=1;arcSize=1.2;strokeWidth=1.3;" vertex="1" parent="yXq6sMf3WYBbyTM89lPN-627">
          <mxGeometry x="0.047" y="0.094" width="128.65200000000002" height="57.652" relative="1" as="geometry" />
        </mxCell>
        <mxCell id="yXq6sMf3WYBbyTM89lPN-630" value="" style="html=1;jettySize=18;whiteSpace=wrap;fontSize=13;strokeColor=#bdd0e9;strokeWidth=1.7;rounded=1;arcSize=2.22;edgeStyle=orthogonalEdgeStyle;startArrow=none;endArrow=none;exitX=0.5;exitY=1.009;exitPerimeter=0;entryX=0.5;entryY=-0.009;entryPerimeter=0;lucidId=NhvoCPnZn6Ri;fontFamily=Tahoma;" edge="1" parent="1" source="yXq6sMf3WYBbyTM89lPN-621" target="yXq6sMf3WYBbyTM89lPN-627">
          <mxGeometry width="100" height="100" relative="1" as="geometry">
            <Array as="points" />
          </mxGeometry>
        </mxCell>
        <mxCell id="yXq6sMf3WYBbyTM89lPN-631" value="&lt;div style=&quot;display: flex; justify-content: center; text-align: center; align-items: baseline; font-size: 0; line-height: 1.25;margin-top: -2px;&quot;&gt;&lt;span&gt;&lt;span style=&quot;font-size: 13.3px; color: rgb(61, 100, 172);&quot;&gt;1..&lt;/span&gt;&lt;span style=&quot;font-size: 13.3px; color: rgb(61, 100, 172);&quot;&gt;*&lt;/span&gt;&lt;/span&gt;&lt;/div&gt;" style="text;html=1;resizable=0;labelBackgroundColor=default;align=center;verticalAlign=middle;fontFamily=Tahoma;" vertex="1" parent="yXq6sMf3WYBbyTM89lPN-630">
          <mxGeometry x="-0.48" relative="1" as="geometry">
            <mxPoint as="offset" />
          </mxGeometry>
        </mxCell>
        <mxCell id="yXq6sMf3WYBbyTM89lPN-632" value="1..1" style="text;html=1;resizable=0;labelBackgroundColor=default;align=center;verticalAlign=middle;fontColor=#3d64ac;fontSize=13.3;fontFamily=Tahoma;" vertex="1" parent="yXq6sMf3WYBbyTM89lPN-630">
          <mxGeometry x="0.48" relative="1" as="geometry">
            <mxPoint as="offset" />
          </mxGeometry>
        </mxCell>
        <mxCell id="yXq6sMf3WYBbyTM89lPN-633" value="" style="group;html=1;fontFamily=Tahoma;" vertex="1" parent="1">
          <mxGeometry x="1500" y="-809" width="142" height="71" as="geometry" />
        </mxCell>
        <mxCell id="yXq6sMf3WYBbyTM89lPN-634" value="" style="shape=stencil(nZBLDoAgDERP0z3SIyjew0SURgSD+Lu9kMZoXLhwN9O+tukAlrNpJg1SzDH4QW/URgNYgZTkjA4UkwJUgGXng+6DX1zLfmoymdXo17xh5zmRJ6Q42BWCfc2oJfdAr+Yv+AP9Cb7OJ3H/2JG1HNGz/84klThPVCc=);whiteSpace=wrap;fontSize=13;strokeColor=#F4F7FB;fillOpacity=100;strokeWidth=1.3;spacing=0;rounded=1;absoluteArcSize=1;arcSize=1.2;fontFamily=Tahoma;" vertex="1" parent="yXq6sMf3WYBbyTM89lPN-633">
          <mxGeometry width="142" height="71" relative="1" as="geometry" />
        </mxCell>
        <mxCell id="yXq6sMf3WYBbyTM89lPN-635" value="Performing HCP" style="strokeColor=none;fillColor=none;overflow=visible;whiteSpace=wrap;fontSize=23.3;fontFamily=Tahoma;fontColor=#bdd0e9;align=center;spacing=0;fillOpacity=100;rounded=1;absoluteArcSize=1;arcSize=1.2;strokeWidth=1.3;" vertex="1" parent="yXq6sMf3WYBbyTM89lPN-633">
          <mxGeometry x="0.047" y="0.094" width="128.65200000000002" height="57.652" relative="1" as="geometry" />
        </mxCell>
        <mxCell id="yXq6sMf3WYBbyTM89lPN-636" value="" style="html=1;jettySize=18;whiteSpace=wrap;fontSize=13;strokeColor=#bdd0e9;strokeWidth=1.7;rounded=1;arcSize=2.22;edgeStyle=orthogonalEdgeStyle;startArrow=none;endArrow=none;exitX=1.004;exitY=0.668;exitPerimeter=0;entryX=0.332;entryY=1.003;entryPerimeter=0;lucidId=NhvoIo0P-nDm;fontFamily=Tahoma;" edge="1" parent="1" source="yXq6sMf3WYBbyTM89lPN-633" target="yXq6sMf3WYBbyTM89lPN-564">
          <mxGeometry width="100" height="100" relative="1" as="geometry">
            <Array as="points" />
          </mxGeometry>
        </mxCell>
        <mxCell id="yXq6sMf3WYBbyTM89lPN-637" value="1..*" style="text;html=1;resizable=0;labelBackgroundColor=default;align=center;verticalAlign=middle;fontColor=#3d64ac;fontSize=13.3;fontFamily=Tahoma;" vertex="1" parent="yXq6sMf3WYBbyTM89lPN-636">
          <mxGeometry x="-0.8" relative="1" as="geometry">
            <mxPoint as="offset" />
          </mxGeometry>
        </mxCell>
        <mxCell id="yXq6sMf3WYBbyTM89lPN-638" value="1..1" style="text;html=1;resizable=0;labelBackgroundColor=default;align=center;verticalAlign=middle;fontColor=#3d64ac;fontSize=13.3;fontFamily=Tahoma;" vertex="1" parent="yXq6sMf3WYBbyTM89lPN-636">
          <mxGeometry x="0.8200000000000001" relative="1" as="geometry">
            <mxPoint as="offset" />
          </mxGeometry>
        </mxCell>
        <mxCell id="yXq6sMf3WYBbyTM89lPN-639" value="" style="html=1;jettySize=18;whiteSpace=wrap;fontSize=13;strokeColor=#bdd0e9;strokeWidth=1.7;rounded=1;arcSize=2.22;edgeStyle=orthogonalEdgeStyle;startArrow=none;endArrow=none;exitX=1.004;exitY=0.332;exitPerimeter=0;entryX=0.165;entryY=1.003;entryPerimeter=0;lucidId=Nhvo6MDUqYZf;fontFamily=Tahoma;" edge="1" parent="1" source="yXq6sMf3WYBbyTM89lPN-633" target="yXq6sMf3WYBbyTM89lPN-561">
          <mxGeometry width="100" height="100" relative="1" as="geometry">
            <Array as="points">
              <mxPoint x="1733" y="-786" />
              <mxPoint x="1733" y="-1029" />
              <mxPoint x="1807" y="-1029" />
            </Array>
          </mxGeometry>
        </mxCell>
        <mxCell id="yXq6sMf3WYBbyTM89lPN-640" value="1..*" style="text;html=1;resizable=0;labelBackgroundColor=default;align=center;verticalAlign=middle;fontColor=#3d64ac;fontSize=13.3;fontFamily=Tahoma;" vertex="1" parent="yXq6sMf3WYBbyTM89lPN-639">
          <mxGeometry x="-0.86" relative="1" as="geometry">
            <mxPoint as="offset" />
          </mxGeometry>
        </mxCell>
        <mxCell id="yXq6sMf3WYBbyTM89lPN-641" value="1..1" style="text;html=1;resizable=0;labelBackgroundColor=default;align=center;verticalAlign=middle;fontColor=#3d64ac;fontSize=13.3;fontFamily=Tahoma;" vertex="1" parent="yXq6sMf3WYBbyTM89lPN-639">
          <mxGeometry x="0.9682171577800611" relative="1" as="geometry">
            <mxPoint as="offset" />
          </mxGeometry>
        </mxCell>
        <mxCell id="yXq6sMf3WYBbyTM89lPN-642" value="" style="html=1;jettySize=18;whiteSpace=wrap;fontSize=13;strokeColor=#bdd0e9;strokeWidth=1.7;rounded=1;arcSize=2.22;edgeStyle=orthogonalEdgeStyle;startArrow=none;endArrow=none;exitX=0.5;exitY=-0.009;exitPerimeter=0;entryX=-0.001;entryY=0.333;entryPerimeter=0;lucidId=NhvoL0unUHME;fontFamily=Tahoma;" edge="1" parent="1" source="yXq6sMf3WYBbyTM89lPN-633" target="yXq6sMf3WYBbyTM89lPN-558">
          <mxGeometry width="100" height="100" relative="1" as="geometry">
            <Array as="points">
              <mxPoint x="1571" y="-827" />
              <mxPoint x="1698" y="-827" />
              <mxPoint x="1698" y="-1258" />
            </Array>
          </mxGeometry>
        </mxCell>
        <mxCell id="yXq6sMf3WYBbyTM89lPN-643" value="1..*" style="text;html=1;resizable=0;labelBackgroundColor=default;align=center;verticalAlign=middle;fontColor=#3d64ac;fontSize=13.3;fontFamily=Tahoma;" vertex="1" parent="yXq6sMf3WYBbyTM89lPN-642">
          <mxGeometry x="-0.94" relative="1" as="geometry">
            <mxPoint as="offset" />
          </mxGeometry>
        </mxCell>
        <mxCell id="yXq6sMf3WYBbyTM89lPN-644" value="1..1" style="text;html=1;resizable=0;labelBackgroundColor=default;align=center;verticalAlign=middle;fontColor=#3d64ac;fontSize=13.3;fontFamily=Tahoma;" vertex="1" parent="yXq6sMf3WYBbyTM89lPN-642">
          <mxGeometry x="0.94" relative="1" as="geometry">
            <mxPoint as="offset" />
          </mxGeometry>
        </mxCell>
        <mxCell id="yXq6sMf3WYBbyTM89lPN-645" value="" style="group;html=1;fontFamily=Tahoma;" vertex="1" parent="1">
          <mxGeometry x="1240" y="-809" width="142" height="71" as="geometry" />
        </mxCell>
        <mxCell id="yXq6sMf3WYBbyTM89lPN-646" value="" style="shape=stencil(nZBLDoAgDERP0z3SIyjew0SURgSD+Lu9kMZoXLhwN9O+tukAlrNpJg1SzDH4QW/URgNYgZTkjA4UkwJUgGXng+6DX1zLfmoymdXo17xh5zmRJ6Q42BWCfc2oJfdAr+Yv+AP9Cb7OJ3H/2JG1HNGz/84klThPVCc=);whiteSpace=wrap;fontSize=13;strokeColor=#F4F7FB;fillOpacity=100;strokeWidth=1.3;spacing=0;rounded=1;absoluteArcSize=1;arcSize=1.2;fontFamily=Tahoma;" vertex="1" parent="yXq6sMf3WYBbyTM89lPN-645">
          <mxGeometry width="142" height="71" relative="1" as="geometry" />
        </mxCell>
        <mxCell id="yXq6sMf3WYBbyTM89lPN-647" value="Performing Organisation" style="strokeColor=none;fillColor=none;overflow=visible;whiteSpace=wrap;fontSize=23.3;fontFamily=Tahoma;fontColor=#bdd0e9;align=center;spacing=0;fillOpacity=100;rounded=1;absoluteArcSize=1;arcSize=1.2;strokeWidth=1.3;" vertex="1" parent="yXq6sMf3WYBbyTM89lPN-645">
          <mxGeometry x="0.047" y="0.094" width="128.65200000000002" height="57.652" relative="1" as="geometry" />
        </mxCell>
        <mxCell id="yXq6sMf3WYBbyTM89lPN-648" value="" style="html=1;jettySize=18;whiteSpace=wrap;fontSize=13;strokeColor=#bdd0e9;strokeWidth=1.7;rounded=1;arcSize=2.22;edgeStyle=orthogonalEdgeStyle;startArrow=none;endArrow=none;exitX=-0.004;exitY=0.5;exitPerimeter=0;entryX=1.004;entryY=0.5;entryPerimeter=0;lucidId=NhvoQ1nuPMS6;fontFamily=Tahoma;" edge="1" parent="1" source="yXq6sMf3WYBbyTM89lPN-633" target="yXq6sMf3WYBbyTM89lPN-645">
          <mxGeometry width="100" height="100" relative="1" as="geometry">
            <Array as="points" />
          </mxGeometry>
        </mxCell>
        <mxCell id="yXq6sMf3WYBbyTM89lPN-649" value="&lt;div style=&quot;display: flex; justify-content: center; text-align: center; align-items: baseline; font-size: 0; line-height: 1.25;margin-top: -2px;&quot;&gt;&lt;span&gt;&lt;span style=&quot;font-size: 13.3px; color: rgb(61, 100, 172);&quot;&gt;1..&lt;/span&gt;&lt;span style=&quot;font-size: 13.3px; color: rgb(61, 100, 172);&quot;&gt;*&lt;/span&gt;&lt;/span&gt;&lt;/div&gt;" style="text;html=1;resizable=0;labelBackgroundColor=default;align=center;verticalAlign=middle;fontFamily=Tahoma;" vertex="1" parent="yXq6sMf3WYBbyTM89lPN-648">
          <mxGeometry x="-0.52" relative="1" as="geometry">
            <mxPoint as="offset" />
          </mxGeometry>
        </mxCell>
        <mxCell id="yXq6sMf3WYBbyTM89lPN-650" value="1..1" style="text;html=1;resizable=0;labelBackgroundColor=default;align=center;verticalAlign=middle;fontColor=#3d64ac;fontSize=13.3;fontFamily=Tahoma;" vertex="1" parent="yXq6sMf3WYBbyTM89lPN-648">
          <mxGeometry x="0.52" relative="1" as="geometry">
            <mxPoint as="offset" />
          </mxGeometry>
        </mxCell>
        <mxCell id="yXq6sMf3WYBbyTM89lPN-651" value="" style="group;html=1;fontFamily=Tahoma;" vertex="1" parent="1">
          <mxGeometry x="2067" y="-809" width="142" height="71" as="geometry" />
        </mxCell>
        <mxCell id="yXq6sMf3WYBbyTM89lPN-652" value="" style="shape=stencil(nZBLDoAgDERP0z3SIyjew0SURgSD+Lu9kMZoXLhwN9O+tukAlrNpJg1SzDH4QW/URgNYgZTkjA4UkwJUgGXng+6DX1zLfmoymdXo17xh5zmRJ6Q42BWCfc2oJfdAr+Yv+AP9Cb7OJ3H/2JG1HNGz/84klThPVCc=);whiteSpace=wrap;fontSize=13;strokeColor=#F4F7FB;fillOpacity=100;strokeWidth=1.3;spacing=0;rounded=1;absoluteArcSize=1;arcSize=1.2;fontFamily=Tahoma;" vertex="1" parent="yXq6sMf3WYBbyTM89lPN-651">
          <mxGeometry width="142" height="71" relative="1" as="geometry" />
        </mxCell>
        <mxCell id="yXq6sMf3WYBbyTM89lPN-653" value="Receiving HCP" style="strokeColor=none;fillColor=none;overflow=visible;whiteSpace=wrap;fontSize=23.3;fontFamily=Tahoma;fontColor=#bdd0e9;align=center;spacing=0;fillOpacity=100;rounded=1;absoluteArcSize=1;arcSize=1.2;strokeWidth=1.3;" vertex="1" parent="yXq6sMf3WYBbyTM89lPN-651">
          <mxGeometry x="0.047" y="0.094" width="128.65200000000002" height="57.652" relative="1" as="geometry" />
        </mxCell>
        <mxCell id="yXq6sMf3WYBbyTM89lPN-654" value="" style="group;html=1;fontFamily=Tahoma;" vertex="1" parent="1">
          <mxGeometry x="2327" y="-809" width="142" height="71" as="geometry" />
        </mxCell>
        <mxCell id="yXq6sMf3WYBbyTM89lPN-655" value="" style="shape=stencil(nZBLDoAgDERP0z3SIyjew0SURgSD+Lu9kMZoXLhwN9O+tukAlrNpJg1SzDH4QW/URgNYgZTkjA4UkwJUgGXng+6DX1zLfmoymdXo17xh5zmRJ6Q42BWCfc2oJfdAr+Yv+AP9Cb7OJ3H/2JG1HNGz/84klThPVCc=);whiteSpace=wrap;fontSize=13;strokeColor=#F4F7FB;fillOpacity=100;strokeWidth=1.3;spacing=0;rounded=1;absoluteArcSize=1;arcSize=1.2;fontFamily=Tahoma;" vertex="1" parent="yXq6sMf3WYBbyTM89lPN-654">
          <mxGeometry width="142" height="71" relative="1" as="geometry" />
        </mxCell>
        <mxCell id="yXq6sMf3WYBbyTM89lPN-656" value="Receiving Organisation" style="strokeColor=none;fillColor=none;overflow=visible;whiteSpace=wrap;fontSize=23.3;fontFamily=Tahoma;fontColor=#bdd0e9;align=center;spacing=0;fillOpacity=100;rounded=1;absoluteArcSize=1;arcSize=1.2;strokeWidth=1.3;" vertex="1" parent="yXq6sMf3WYBbyTM89lPN-654">
          <mxGeometry x="0.047" y="0.094" width="128.65200000000002" height="57.652" relative="1" as="geometry" />
        </mxCell>
        <mxCell id="yXq6sMf3WYBbyTM89lPN-657" value="" style="html=1;jettySize=18;whiteSpace=wrap;fontSize=13;strokeColor=#bdd0e9;strokeWidth=1.7;rounded=1;arcSize=2.22;edgeStyle=orthogonalEdgeStyle;startArrow=none;endArrow=none;exitX=-0.004;exitY=0.5;exitPerimeter=0;entryX=1.004;entryY=0.5;entryPerimeter=0;lucidId=Nhvowvu6TJMn;fontFamily=Tahoma;" edge="1" parent="1" source="yXq6sMf3WYBbyTM89lPN-654" target="yXq6sMf3WYBbyTM89lPN-651">
          <mxGeometry width="100" height="100" relative="1" as="geometry">
            <Array as="points" />
          </mxGeometry>
        </mxCell>
        <mxCell id="yXq6sMf3WYBbyTM89lPN-658" value="1..1" style="text;html=1;resizable=0;labelBackgroundColor=default;align=center;verticalAlign=middle;fontColor=#3d64ac;fontSize=13.3;fontFamily=Tahoma;" vertex="1" parent="yXq6sMf3WYBbyTM89lPN-657">
          <mxGeometry x="-0.52" relative="1" as="geometry">
            <mxPoint as="offset" />
          </mxGeometry>
        </mxCell>
        <mxCell id="yXq6sMf3WYBbyTM89lPN-659" value="&lt;div style=&quot;display: flex; justify-content: center; text-align: center; align-items: baseline; font-size: 0; line-height: 1.25;margin-top: -2px;&quot;&gt;&lt;span&gt;&lt;span style=&quot;font-size: 13.3px; color: rgb(61, 100, 172);&quot;&gt;1..&lt;/span&gt;&lt;span style=&quot;font-size: 13.3px; color: rgb(61, 100, 172);&quot;&gt;*&lt;/span&gt;&lt;/span&gt;&lt;/div&gt;" style="text;html=1;resizable=0;labelBackgroundColor=default;align=center;verticalAlign=middle;fontFamily=Tahoma;" vertex="1" parent="yXq6sMf3WYBbyTM89lPN-657">
          <mxGeometry x="0.52" relative="1" as="geometry">
            <mxPoint as="offset" />
          </mxGeometry>
        </mxCell>
        <mxCell id="yXq6sMf3WYBbyTM89lPN-660" value="" style="html=1;jettySize=18;whiteSpace=wrap;overflow=block;blockSpacing=1;fontSize=13;fontFamily=Tahoma;strokeColor=#bdd0e9;strokeWidth=1.7;rounded=1;arcSize=2.22;edgeStyle=orthogonalEdgeStyle;startArrow=none;endArrow=none;exitX=0.668;exitY=1.003;exitPerimeter=0;entryX=-0.004;entryY=0.668;entryPerimeter=0;lucidId=NhvocYgP_BBt;" edge="1" parent="1" source="yXq6sMf3WYBbyTM89lPN-564" target="yXq6sMf3WYBbyTM89lPN-651">
          <mxGeometry width="100" height="100" relative="1" as="geometry">
            <Array as="points" />
          </mxGeometry>
        </mxCell>
        <mxCell id="yXq6sMf3WYBbyTM89lPN-661" value="1..1" style="text;html=1;resizable=0;labelBackgroundColor=default;align=center;verticalAlign=middle;fontColor=#3d64ac;fontSize=13.3;fontFamily=Tahoma;" vertex="1" parent="yXq6sMf3WYBbyTM89lPN-660">
          <mxGeometry x="-0.8200000000000001" relative="1" as="geometry">
            <mxPoint as="offset" />
          </mxGeometry>
        </mxCell>
        <mxCell id="yXq6sMf3WYBbyTM89lPN-662" value="1..*" style="text;html=1;resizable=0;labelBackgroundColor=default;align=center;verticalAlign=middle;fontColor=#3d64ac;fontSize=13.3;fontFamily=Tahoma;" vertex="1" parent="yXq6sMf3WYBbyTM89lPN-660">
          <mxGeometry x="0.8" relative="1" as="geometry">
            <mxPoint as="offset" />
          </mxGeometry>
        </mxCell>
        <mxCell id="yXq6sMf3WYBbyTM89lPN-663" value="" style="html=1;jettySize=18;whiteSpace=wrap;fontSize=13;strokeColor=#bdd0e9;strokeWidth=1.7;rounded=1;arcSize=2.22;edgeStyle=orthogonalEdgeStyle;startArrow=none;endArrow=none;exitX=0.835;exitY=1.003;exitPerimeter=0;entryX=-0.004;entryY=0.332;entryPerimeter=0;lucidId=Nhvo92.rqCRI;fontFamily=Tahoma;" edge="1" parent="1" source="yXq6sMf3WYBbyTM89lPN-561" target="yXq6sMf3WYBbyTM89lPN-651">
          <mxGeometry width="100" height="100" relative="1" as="geometry">
            <Array as="points">
              <mxPoint x="1902" y="-1029" />
              <mxPoint x="1970" y="-1029" />
              <mxPoint x="1970" y="-786" />
            </Array>
          </mxGeometry>
        </mxCell>
        <mxCell id="yXq6sMf3WYBbyTM89lPN-664" value="1..1" style="text;html=1;resizable=0;labelBackgroundColor=default;align=center;verticalAlign=middle;fontColor=#3d64ac;fontSize=13.3;fontFamily=Tahoma;" vertex="1" parent="yXq6sMf3WYBbyTM89lPN-663">
          <mxGeometry x="-0.8152759425314521" relative="1" as="geometry">
            <mxPoint as="offset" />
          </mxGeometry>
        </mxCell>
        <mxCell id="yXq6sMf3WYBbyTM89lPN-665" value="1..*" style="text;html=1;resizable=0;labelBackgroundColor=default;align=center;verticalAlign=middle;fontColor=#3d64ac;fontSize=13.3;fontFamily=Tahoma;" vertex="1" parent="yXq6sMf3WYBbyTM89lPN-663">
          <mxGeometry x="0.8400000000000001" relative="1" as="geometry">
            <mxPoint as="offset" />
          </mxGeometry>
        </mxCell>
        <mxCell id="yXq6sMf3WYBbyTM89lPN-666" value="" style="html=1;jettySize=18;whiteSpace=wrap;fontSize=13;strokeColor=#bdd0e9;strokeWidth=1.7;rounded=1;arcSize=2.22;edgeStyle=orthogonalEdgeStyle;startArrow=none;endArrow=none;exitX=1.001;exitY=0.667;exitPerimeter=0;entryX=0.5;entryY=-0.009;entryPerimeter=0;lucidId=NhvonzZK2w8a;fontFamily=Tahoma;" edge="1" parent="1" source="yXq6sMf3WYBbyTM89lPN-558" target="yXq6sMf3WYBbyTM89lPN-651">
          <mxGeometry width="100" height="100" relative="1" as="geometry">
            <Array as="points">
              <mxPoint x="2003" y="-1235" />
              <mxPoint x="2003" y="-827" />
              <mxPoint x="2138" y="-827" />
            </Array>
          </mxGeometry>
        </mxCell>
        <mxCell id="yXq6sMf3WYBbyTM89lPN-667" value="1..1" style="text;html=1;resizable=0;labelBackgroundColor=default;align=center;verticalAlign=middle;fontColor=#3d64ac;fontSize=13.3;fontFamily=Tahoma;" vertex="1" parent="yXq6sMf3WYBbyTM89lPN-666">
          <mxGeometry x="-0.88" relative="1" as="geometry">
            <mxPoint as="offset" />
          </mxGeometry>
        </mxCell>
        <mxCell id="yXq6sMf3WYBbyTM89lPN-668" value="1..*" style="text;html=1;resizable=0;labelBackgroundColor=default;align=center;verticalAlign=middle;fontColor=#3d64ac;fontSize=13.3;fontFamily=Tahoma;" vertex="1" parent="yXq6sMf3WYBbyTM89lPN-666">
          <mxGeometry x="0.8799999999999999" relative="1" as="geometry">
            <mxPoint as="offset" />
          </mxGeometry>
        </mxCell>
        <mxCell id="yXq6sMf3WYBbyTM89lPN-669" value="" style="group;html=1;fontFamily=Tahoma;" vertex="1" parent="1">
          <mxGeometry x="2327" y="-1447" width="142" height="71" as="geometry" />
        </mxCell>
        <mxCell id="yXq6sMf3WYBbyTM89lPN-670" value="" style="shape=stencil(nZBLDoAgDERP0z3SIyjew0SURgSD+Lu9kMZoXLhwN9O+tukAlrNpJg1SzDH4QW/URgNYgZTkjA4UkwJUgGXng+6DX1zLfmoymdXo17xh5zmRJ6Q42BWCfc2oJfdAr+Yv+AP9Cb7OJ3H/2JG1HNGz/84klThPVCc=);whiteSpace=wrap;fontSize=13;strokeColor=#F4F7FB;fillOpacity=100;strokeWidth=1.3;spacing=0;rounded=1;absoluteArcSize=1;arcSize=1.2;fontFamily=Tahoma;" vertex="1" parent="yXq6sMf3WYBbyTM89lPN-669">
          <mxGeometry width="142" height="71" relative="1" as="geometry" />
        </mxCell>
        <mxCell id="yXq6sMf3WYBbyTM89lPN-671" value="Patient" style="strokeColor=none;fillColor=none;overflow=visible;whiteSpace=wrap;fontSize=23.3;fontFamily=Tahoma;fontColor=#bdd0e9;align=center;spacing=0;fillOpacity=100;rounded=1;absoluteArcSize=1;arcSize=1.2;strokeWidth=1.3;" vertex="1" parent="yXq6sMf3WYBbyTM89lPN-669">
          <mxGeometry x="0.047" y="0.094" width="128.65200000000002" height="57.652" relative="1" as="geometry" />
        </mxCell>
        <mxCell id="yXq6sMf3WYBbyTM89lPN-672" value="" style="html=1;jettySize=18;whiteSpace=wrap;fontSize=13;strokeColor=#bdd0e9;strokeWidth=1.7;rounded=1;arcSize=2.22;edgeStyle=orthogonalEdgeStyle;startArrow=none;endArrow=none;exitX=0.835;exitY=-0.003;exitPerimeter=0;entryX=0.67;entryY=1.009;entryPerimeter=0;lucidId=NhvocygMpJAd;fontFamily=Tahoma;" edge="1" parent="1" source="yXq6sMf3WYBbyTM89lPN-609" target="yXq6sMf3WYBbyTM89lPN-669">
          <mxGeometry width="100" height="100" relative="1" as="geometry">
            <Array as="points" />
          </mxGeometry>
        </mxCell>
        <mxCell id="yXq6sMf3WYBbyTM89lPN-673" value="1..*" style="text;html=1;resizable=0;labelBackgroundColor=default;align=center;verticalAlign=middle;fontColor=#3d64ac;fontSize=13.3;fontFamily=Tahoma;" vertex="1" parent="yXq6sMf3WYBbyTM89lPN-672">
          <mxGeometry x="-0.88" relative="1" as="geometry">
            <mxPoint as="offset" />
          </mxGeometry>
        </mxCell>
        <mxCell id="yXq6sMf3WYBbyTM89lPN-674" value="1..1" style="text;html=1;resizable=0;labelBackgroundColor=default;align=center;verticalAlign=middle;fontColor=#3d64ac;fontSize=13.3;fontFamily=Tahoma;" vertex="1" parent="yXq6sMf3WYBbyTM89lPN-672">
          <mxGeometry x="0.8799999999999999" relative="1" as="geometry">
            <mxPoint as="offset" />
          </mxGeometry>
        </mxCell>
        <mxCell id="yXq6sMf3WYBbyTM89lPN-675" value="" style="html=1;jettySize=18;whiteSpace=wrap;fontSize=13;strokeColor=#bdd0e9;strokeWidth=1.7;rounded=1;arcSize=2.22;edgeStyle=orthogonalEdgeStyle;startArrow=none;endArrow=none;exitX=0.33;exitY=1.009;exitPerimeter=0;entryX=1.001;entryY=0.333;entryPerimeter=0;lucidId=Nhvo.W94uXV5;fontFamily=Tahoma;" edge="1" parent="1" source="yXq6sMf3WYBbyTM89lPN-669" target="yXq6sMf3WYBbyTM89lPN-558">
          <mxGeometry width="100" height="100" relative="1" as="geometry">
            <Array as="points" />
          </mxGeometry>
        </mxCell>
        <mxCell id="yXq6sMf3WYBbyTM89lPN-676" value="1..1" style="text;html=1;resizable=0;labelBackgroundColor=default;align=center;verticalAlign=middle;fontColor=#3d64ac;fontSize=13.3;fontFamily=Tahoma;" vertex="1" parent="yXq6sMf3WYBbyTM89lPN-675">
          <mxGeometry x="-0.88" relative="1" as="geometry">
            <mxPoint as="offset" />
          </mxGeometry>
        </mxCell>
        <mxCell id="yXq6sMf3WYBbyTM89lPN-677" value="1..1" style="text;html=1;resizable=0;labelBackgroundColor=default;align=center;verticalAlign=middle;fontColor=#3d64ac;fontSize=13.3;fontFamily=Tahoma;" vertex="1" parent="yXq6sMf3WYBbyTM89lPN-675">
          <mxGeometry x="0.8799999999999999" relative="1" as="geometry">
            <mxPoint as="offset" />
          </mxGeometry>
        </mxCell>
        <mxCell id="yXq6sMf3WYBbyTM89lPN-678" value="" style="html=1;jettySize=18;whiteSpace=wrap;fontSize=13;strokeColor=#bdd0e9;strokeWidth=1.7;rounded=1;arcSize=2.22;edgeStyle=orthogonalEdgeStyle;startArrow=none;endArrow=none;exitX=-0.004;exitY=0.5;exitPerimeter=0;lucidId=Nhvo4aJOvT4o;fontFamily=Tahoma;" edge="1" parent="1" source="yXq6sMf3WYBbyTM89lPN-669">
          <mxGeometry width="100" height="100" relative="1" as="geometry">
            <Array as="points" />
            <mxPoint x="1930" y="-1412" as="targetPoint" />
          </mxGeometry>
        </mxCell>
        <mxCell id="yXq6sMf3WYBbyTM89lPN-679" value="1..1" style="text;html=1;resizable=0;labelBackgroundColor=default;align=center;verticalAlign=middle;fontColor=#3d64ac;fontSize=13.3;fontFamily=Tahoma;" vertex="1" parent="yXq6sMf3WYBbyTM89lPN-678">
          <mxGeometry x="-0.84" relative="1" as="geometry">
            <mxPoint as="offset" />
          </mxGeometry>
        </mxCell>
        <mxCell id="yXq6sMf3WYBbyTM89lPN-680" value="1..1" style="text;html=1;resizable=0;labelBackgroundColor=default;align=center;verticalAlign=middle;fontColor=#3d64ac;fontSize=13.3;fontFamily=Tahoma;" vertex="1" parent="yXq6sMf3WYBbyTM89lPN-678">
          <mxGeometry x="0.8400000000000001" relative="1" as="geometry">
            <mxPoint as="offset" />
          </mxGeometry>
        </mxCell>
        <mxCell id="yXq6sMf3WYBbyTM89lPN-681" value="" style="group;html=1;fontFamily=Tahoma;" vertex="1" parent="1">
          <mxGeometry x="1200" y="-1630" width="537" height="47" as="geometry" />
        </mxCell>
        <mxCell id="yXq6sMf3WYBbyTM89lPN-682" value="" style="shape=stencil(nZBLDoAgDERP0z3SIyjew0SURgSD+Lu9kMZoXLhwN9O+tukAlrNpJg1SzDH4QW/URgNYgZTkjA4UkwJUgGXng+6DX1zLfmoymdXo17xh5zmRJ6Q42BWCfc2oJfdAr+Yv+AP9Cb7OJ3H/2JG1HNGz/84klThPVCc=);whiteSpace=wrap;fontSize=13;fillOpacity=0;fillColor=#000000;strokeWidth=0.4;align=left;spacing=0;rounded=1;absoluteArcSize=1;arcSize=0.4;fontFamily=Tahoma;" vertex="1" parent="yXq6sMf3WYBbyTM89lPN-681">
          <mxGeometry width="537" height="47" relative="1" as="geometry" />
        </mxCell>
        <mxCell id="yXq6sMf3WYBbyTM89lPN-683" value="Pathology Reporting – Combined Logical Data Model (Full)" style="strokeColor=none;fillColor=none;overflow=visible;whiteSpace=wrap;fontSize=20;fontFamily=Tahoma;align=left;spacing=0;fillOpacity=0;rounded=1;absoluteArcSize=1;arcSize=0.4;strokeWidth=0.4;" vertex="1" parent="yXq6sMf3WYBbyTM89lPN-681">
          <mxGeometry x="0.012" y="0.141" width="523.5749999999999" height="33.745999999999995" relative="1" as="geometry" />
        </mxCell>
        <UserObject label="Test Report Filing" Cost="" Process_Number="" Owner="" Function="" Start_Date="" End_Date="" Status="" id="yXq6sMf3WYBbyTM89lPN-684">
          <mxCell style="html=1;overflow=block;blockSpacing=1;whiteSpace=wrap;fontSize=23.3;fontFamily=Tahoma;fontColor=#feffff;align=center;spacing=3.3;strokeColor=#c8c8c8;fillOpacity=100;rounded=1;absoluteArcSize=1;arcSize=0.4;fillColor=#4672C4;strokeWidth=0.4;lucidId=Nhvojh7V4pGw;" vertex="1" parent="1">
            <mxGeometry x="2067" y="-1565" width="142" height="71" as="geometry" />
          </mxCell>
        </UserObject>
        <mxCell id="yXq6sMf3WYBbyTM89lPN-685" value="" style="html=1;jettySize=18;whiteSpace=wrap;fontSize=13;strokeColor=#4672C4;strokeWidth=1.7;rounded=1;arcSize=2.22;edgeStyle=orthogonalEdgeStyle;startArrow=none;endArrow=none;exitX=0.332;exitY=1.003;exitPerimeter=0;entryX=0.835;entryY=-0.003;entryPerimeter=0;lucidId=Nhvo05.2UTAt;fontFamily=Tahoma;" edge="1" parent="1" source="yXq6sMf3WYBbyTM89lPN-684" target="yXq6sMf3WYBbyTM89lPN-558">
          <mxGeometry width="100" height="100" relative="1" as="geometry">
            <Array as="points">
              <mxPoint x="2114" y="-1388" />
              <mxPoint x="1940" y="-1388" />
              <mxPoint x="1940" y="-1282" />
            </Array>
          </mxGeometry>
        </mxCell>
        <mxCell id="yXq6sMf3WYBbyTM89lPN-686" value="0..*" style="text;html=1;resizable=0;labelBackgroundColor=default;align=center;verticalAlign=middle;fontColor=#4672C4;fontSize=13.3;fontFamily=Tahoma;" vertex="1" parent="yXq6sMf3WYBbyTM89lPN-685">
          <mxGeometry x="-0.9" relative="1" as="geometry">
            <mxPoint as="offset" />
          </mxGeometry>
        </mxCell>
        <mxCell id="yXq6sMf3WYBbyTM89lPN-687" value="0..1" style="text;html=1;resizable=0;labelBackgroundColor=default;align=center;verticalAlign=middle;fontColor=#4672C4;fontSize=13.3;fontFamily=Tahoma;" vertex="1" parent="yXq6sMf3WYBbyTM89lPN-685">
          <mxGeometry x="0.8999999999999999" relative="1" as="geometry">
            <mxPoint x="17" y="3" as="offset" />
          </mxGeometry>
        </mxCell>
        <mxCell id="yXq6sMf3WYBbyTM89lPN-688" value="" style="html=1;jettySize=18;whiteSpace=wrap;fontSize=13;strokeColor=#4672C4;strokeWidth=1.7;rounded=1;arcSize=2.22;edgeStyle=orthogonalEdgeStyle;startArrow=none;endArrow=none;exitX=0.668;exitY=1.003;exitPerimeter=0;entryX=0.835;entryY=-0.003;entryPerimeter=0;lucidId=Nhvohkvtkxcn;fontFamily=Tahoma;" edge="1" parent="1" source="yXq6sMf3WYBbyTM89lPN-684" target="yXq6sMf3WYBbyTM89lPN-561">
          <mxGeometry width="100" height="100" relative="1" as="geometry">
            <Array as="points">
              <mxPoint x="2162" y="-1305" />
              <mxPoint x="2040" y="-1305" />
              <mxPoint x="2040" y="-1117" />
            </Array>
          </mxGeometry>
        </mxCell>
        <mxCell id="yXq6sMf3WYBbyTM89lPN-689" value="0..*" style="text;html=1;resizable=0;labelBackgroundColor=default;align=center;verticalAlign=middle;fontColor=#4672C4;fontSize=13.3;fontFamily=Tahoma;" vertex="1" parent="yXq6sMf3WYBbyTM89lPN-688">
          <mxGeometry x="-0.92" relative="1" as="geometry">
            <mxPoint as="offset" />
          </mxGeometry>
        </mxCell>
        <mxCell id="yXq6sMf3WYBbyTM89lPN-690" value="0..1" style="text;html=1;resizable=0;labelBackgroundColor=default;align=center;verticalAlign=middle;fontColor=#4672C4;fontSize=13.3;fontFamily=Tahoma;" vertex="1" parent="yXq6sMf3WYBbyTM89lPN-688">
          <mxGeometry x="0.9199999999999999" relative="1" as="geometry">
            <mxPoint as="offset" />
          </mxGeometry>
        </mxCell>
        <mxCell id="yXq6sMf3WYBbyTM89lPN-691" value="" style="html=1;jettySize=18;whiteSpace=wrap;fontSize=13;strokeColor=#4672C4;strokeWidth=1.7;rounded=1;arcSize=2.22;edgeStyle=orthogonalEdgeStyle;startArrow=none;endArrow=none;exitX=1.001;exitY=0.5;exitPerimeter=0;entryX=1.001;entryY=0.5;entryPerimeter=0;lucidId=NhvoJk2Ep9GN;fontFamily=Tahoma;" edge="1" parent="1" source="yXq6sMf3WYBbyTM89lPN-684" target="yXq6sMf3WYBbyTM89lPN-564">
          <mxGeometry width="100" height="100" relative="1" as="geometry">
            <Array as="points" />
          </mxGeometry>
        </mxCell>
        <mxCell id="yXq6sMf3WYBbyTM89lPN-692" value="0..*" style="text;html=1;resizable=0;labelBackgroundColor=default;align=center;verticalAlign=middle;fontColor=#4672C4;fontSize=13.3;fontFamily=Tahoma;" vertex="1" parent="yXq6sMf3WYBbyTM89lPN-691">
          <mxGeometry x="-0.9481762846865049" relative="1" as="geometry">
            <mxPoint as="offset" />
          </mxGeometry>
        </mxCell>
        <mxCell id="yXq6sMf3WYBbyTM89lPN-693" value="0..1" style="text;html=1;resizable=0;labelBackgroundColor=default;align=center;verticalAlign=middle;fontColor=#4672C4;fontSize=13.3;fontFamily=Tahoma;" vertex="1" parent="yXq6sMf3WYBbyTM89lPN-691">
          <mxGeometry x="0.9584272614800946" relative="1" as="geometry">
            <mxPoint as="offset" />
          </mxGeometry>
        </mxCell>
        <mxCell id="yXq6sMf3WYBbyTM89lPN-694" value="" style="html=1;jettySize=18;whiteSpace=wrap;fontSize=13;strokeColor=#4672C4;strokeWidth=1.7;rounded=1;arcSize=2.22;edgeStyle=orthogonalEdgeStyle;startArrow=none;endArrow=none;exitX=-0.001;exitY=0.667;exitPerimeter=0;lucidId=NhvopIt4mszh;fontFamily=Tahoma;" edge="1" parent="1" source="yXq6sMf3WYBbyTM89lPN-558">
          <mxGeometry width="100" height="100" relative="1" as="geometry">
            <Array as="points">
              <mxPoint x="1760" y="-916" />
            </Array>
            <mxPoint x="1784" y="-916" as="targetPoint" />
          </mxGeometry>
        </mxCell>
        <mxCell id="yXq6sMf3WYBbyTM89lPN-695" value="0..1" style="text;html=1;resizable=0;labelBackgroundColor=default;align=center;verticalAlign=middle;fontColor=#4672c4;fontSize=13.3;fontFamily=Tahoma;" vertex="1" parent="yXq6sMf3WYBbyTM89lPN-694">
          <mxGeometry x="-0.8" relative="1" as="geometry">
            <mxPoint as="offset" />
          </mxGeometry>
        </mxCell>
        <mxCell id="yXq6sMf3WYBbyTM89lPN-696" value="0..*" style="text;html=1;resizable=0;labelBackgroundColor=default;align=center;verticalAlign=middle;fontColor=#4672c4;fontSize=13.3;fontFamily=Tahoma;" vertex="1" parent="yXq6sMf3WYBbyTM89lPN-694">
          <mxGeometry x="0.9237014695372694" relative="1" as="geometry">
            <mxPoint x="-13.77996681571085" as="offset" />
          </mxGeometry>
        </mxCell>
      </root>
    </mxGraphModel>
  </diagram>
  <diagram name="LDM with FHIR resources" id="Tk0jzogo3PKPMUeHSAbU">
    <mxGraphModel dx="5" dy="3677" grid="1" gridSize="10" guides="1" tooltips="1" connect="1" arrows="1" fold="1" page="1" pageScale="1" pageWidth="1169" pageHeight="827" math="0" shadow="0">
      <root>
        <mxCell id="SbUpuCttrVF5YKWX0RyJ-0" />
        <mxCell id="SbUpuCttrVF5YKWX0RyJ-1" parent="SbUpuCttrVF5YKWX0RyJ-0" />
        <mxCell id="SbUpuCttrVF5YKWX0RyJ-141" value="" style="group;html=1;fontFamily=Tahoma;" vertex="1" parent="SbUpuCttrVF5YKWX0RyJ-1">
          <mxGeometry x="2945" y="-1296" width="142" height="88" as="geometry" />
        </mxCell>
        <mxCell id="SbUpuCttrVF5YKWX0RyJ-142" value="" style="shape=stencil(nZBLDoAgDERP0z3SIyjew0SURgSD+Lu9kMZoXLhwN9O+tukAlrNpJg1SzDH4QW/URgNYgZTkjA4UkwJUgGXng+6DX1zLfmoymdXo17xh5zmRJ6Q42BWCfc2oJfdAr+Yv+AP9Cb7OJ3H/2JG1HNGz/84klThPVCc=);whiteSpace=wrap;fontSize=13;strokeColor=#C8C8C8;fillOpacity=100;fillColor=#4672C4;strokeWidth=0.4;spacing=0;rounded=1;absoluteArcSize=1;arcSize=0.4;fontFamily=Tahoma;" vertex="1" parent="SbUpuCttrVF5YKWX0RyJ-141">
          <mxGeometry width="142" height="88" relative="1" as="geometry" />
        </mxCell>
        <mxCell id="SbUpuCttrVF5YKWX0RyJ-143" value="&lt;div style=&quot;display: flex; justify-content: center; text-align: center; align-items: baseline; font-size: 0; line-height: 1.25;margin-top: -2px;&quot;&gt;&lt;span&gt;&lt;span style=&quot;font-size: 23.3px; color: rgb(254, 255, 255);&quot;&gt;Test Report&#xa;&lt;/span&gt;&lt;/span&gt;&lt;/div&gt;&lt;div style=&quot;display: flex; justify-content: center; text-align: center; align-items: baseline; font-size: 0; line-height: 1.25;margin-top: -2px;&quot;&gt;&lt;span&gt;&lt;span style=&quot;font-size: 23.3px; color: rgb(254, 255, 255);&quot;&gt;Diagnostic&#xa;&lt;/span&gt;&lt;/span&gt;&lt;/div&gt;&lt;div style=&quot;display: flex; justify-content: center; text-align: center; align-items: baseline; font-size: 0; line-height: 1.25;margin-top: -2px;&quot;&gt;&lt;span&gt;&lt;span style=&quot;font-size: 23.3px; color: rgb(254, 255, 255);&quot;&gt;Report&lt;/span&gt;&lt;/span&gt;&lt;/div&gt;" style="strokeColor=none;fillColor=none;overflow=visible;whiteSpace=wrap;html=1;fontFamily=Tahoma;spacing=0;fillOpacity=100;rounded=1;absoluteArcSize=1;arcSize=0.4;strokeWidth=0.4;fontSize=13;" vertex="1" parent="SbUpuCttrVF5YKWX0RyJ-141">
          <mxGeometry x="0.047" y="0.094" width="128.65200000000002" height="71.456" relative="1" as="geometry" />
        </mxCell>
        <mxCell id="SbUpuCttrVF5YKWX0RyJ-144" value="" style="group;html=1;fontFamily=Tahoma;" vertex="1" parent="SbUpuCttrVF5YKWX0RyJ-1">
          <mxGeometry x="2945" y="-1127" width="142" height="71" as="geometry" />
        </mxCell>
        <mxCell id="SbUpuCttrVF5YKWX0RyJ-145" value="" style="shape=stencil(nZBLDoAgDERP0z3SIyjew0SURgSD+Lu9kMZoXLhwN9O+tukAlrNpJg1SzDH4QW/URgNYgZTkjA4UkwJUgGXng+6DX1zLfmoymdXo17xh5zmRJ6Q42BWCfc2oJfdAr+Yv+AP9Cb7OJ3H/2JG1HNGz/84klThPVCc=);whiteSpace=wrap;overflow=block;blockSpacing=1;html=1;strokeColor=#C8C8C8;fillOpacity=100;fillColor=#4672C4;strokeWidth=0.4;fontSize=13;spacing=0;rounded=1;absoluteArcSize=1;arcSize=0.4;fontFamily=Tahoma;" vertex="1" parent="SbUpuCttrVF5YKWX0RyJ-144">
          <mxGeometry width="142" height="71" relative="1" as="geometry" />
        </mxCell>
        <mxCell id="SbUpuCttrVF5YKWX0RyJ-146" value="&lt;div style=&quot;display: flex; justify-content: center; text-align: center; align-items: baseline; font-size: 0; line-height: 1.25;margin-top: -2px;&quot;&gt;&lt;span&gt;&lt;span style=&quot;font-size: 23.3px; color: rgb(254, 255, 255);&quot;&gt;Test Group&#xa;&lt;/span&gt;&lt;/span&gt;&lt;/div&gt;&lt;div style=&quot;display: flex; justify-content: center; text-align: center; align-items: baseline; font-size: 0; line-height: 1.25;margin-top: -2px;&quot;&gt;&lt;span&gt;&lt;span style=&quot;font-size: 23.3px; color: rgb(254, 255, 255);&quot;&gt;Observation&lt;/span&gt;&lt;/span&gt;&lt;/div&gt;" style="strokeColor=none;fillColor=none;overflow=visible;whiteSpace=wrap;html=1;fontFamily=Tahoma;spacing=0;fillOpacity=100;rounded=1;absoluteArcSize=1;arcSize=0.4;strokeWidth=0.4;fontSize=13;" vertex="1" parent="SbUpuCttrVF5YKWX0RyJ-144">
          <mxGeometry x="0.047" y="0.094" width="128.65200000000002" height="57.652" relative="1" as="geometry" />
        </mxCell>
        <mxCell id="SbUpuCttrVF5YKWX0RyJ-147" value="" style="group;html=1;fontFamily=Tahoma;" vertex="1" parent="SbUpuCttrVF5YKWX0RyJ-1">
          <mxGeometry x="2945" y="-961" width="142" height="71" as="geometry" />
        </mxCell>
        <mxCell id="SbUpuCttrVF5YKWX0RyJ-148" value="" style="shape=stencil(nZBLDoAgDERP0z3SIyjew0SURgSD+Lu9kMZoXLhwN9O+tukAlrNpJg1SzDH4QW/URgNYgZTkjA4UkwJUgGXng+6DX1zLfmoymdXo17xh5zmRJ6Q42BWCfc2oJfdAr+Yv+AP9Cb7OJ3H/2JG1HNGz/84klThPVCc=);whiteSpace=wrap;overflow=block;blockSpacing=1;html=1;strokeColor=#C8C8C8;fillOpacity=100;fillColor=#4672C4;strokeWidth=0.4;fontSize=13;spacing=0;rounded=1;absoluteArcSize=1;arcSize=0.4;fontFamily=Tahoma;" vertex="1" parent="SbUpuCttrVF5YKWX0RyJ-147">
          <mxGeometry width="142" height="71" relative="1" as="geometry" />
        </mxCell>
        <mxCell id="SbUpuCttrVF5YKWX0RyJ-149" value="&lt;div style=&quot;display: flex; justify-content: center; text-align: center; align-items: baseline; font-size: 0; line-height: 1.25;margin-top: -2px;&quot;&gt;&lt;span&gt;&lt;span style=&quot;font-size: 23.3px; color: rgb(254, 255, 255);&quot;&gt;Test Result&#xa;&lt;/span&gt;&lt;/span&gt;&lt;/div&gt;&lt;div style=&quot;display: flex; justify-content: center; text-align: center; align-items: baseline; font-size: 0; line-height: 1.25;margin-top: -2px;&quot;&gt;&lt;span&gt;&lt;span style=&quot;font-size: 23.3px; color: rgb(254, 255, 255);&quot;&gt;Observation&lt;/span&gt;&lt;/span&gt;&lt;/div&gt;" style="strokeColor=none;fillColor=none;overflow=visible;whiteSpace=wrap;html=1;fontFamily=Tahoma;spacing=0;fillOpacity=100;rounded=1;absoluteArcSize=1;arcSize=0.4;strokeWidth=0.4;fontSize=13;" vertex="1" parent="SbUpuCttrVF5YKWX0RyJ-147">
          <mxGeometry x="0.047" y="0.094" width="128.65200000000002" height="57.652" relative="1" as="geometry" />
        </mxCell>
        <mxCell id="SbUpuCttrVF5YKWX0RyJ-150" value="" style="html=1;jettySize=18;whiteSpace=wrap;fontSize=13;strokeColor=#4672C4;strokeWidth=1.7;rounded=1;arcSize=2.22;edgeStyle=orthogonalEdgeStyle;startArrow=none;endArrow=none;exitX=0.5;exitY=1.002;exitPerimeter=0;entryX=0.5;entryY=-0.003;entryPerimeter=0;lucidId=bYvo.EEZCDGu;fontFamily=Tahoma;" edge="1" parent="SbUpuCttrVF5YKWX0RyJ-1" source="SbUpuCttrVF5YKWX0RyJ-141" target="SbUpuCttrVF5YKWX0RyJ-144">
          <mxGeometry width="100" height="100" relative="1" as="geometry">
            <Array as="points" />
          </mxGeometry>
        </mxCell>
        <mxCell id="SbUpuCttrVF5YKWX0RyJ-151" value="0..1" style="text;html=1;resizable=0;labelBackgroundColor=default;align=center;verticalAlign=middle;fontColor=#4672c4;fontSize=13.3;fontFamily=Tahoma;" vertex="1" parent="SbUpuCttrVF5YKWX0RyJ-150">
          <mxGeometry x="-0.62" relative="1" as="geometry">
            <mxPoint as="offset" />
          </mxGeometry>
        </mxCell>
        <mxCell id="SbUpuCttrVF5YKWX0RyJ-152" value="0..*" style="text;html=1;resizable=0;labelBackgroundColor=default;align=center;verticalAlign=middle;fontColor=#4672c4;fontSize=13.3;fontFamily=Tahoma;" vertex="1" parent="SbUpuCttrVF5YKWX0RyJ-150">
          <mxGeometry x="0.6200000000000001" relative="1" as="geometry">
            <mxPoint as="offset" />
          </mxGeometry>
        </mxCell>
        <mxCell id="SbUpuCttrVF5YKWX0RyJ-153" value="" style="html=1;jettySize=18;whiteSpace=wrap;fontSize=13;strokeColor=#4672C4;strokeWidth=1.7;rounded=1;arcSize=2.22;edgeStyle=orthogonalEdgeStyle;startArrow=none;endArrow=none;exitX=0.5;exitY=1.003;exitPerimeter=0;entryX=0.5;entryY=-0.003;entryPerimeter=0;lucidId=bYvo4-aU4P43;fontFamily=Tahoma;" edge="1" parent="SbUpuCttrVF5YKWX0RyJ-1" source="SbUpuCttrVF5YKWX0RyJ-144" target="SbUpuCttrVF5YKWX0RyJ-147">
          <mxGeometry width="100" height="100" relative="1" as="geometry">
            <Array as="points" />
          </mxGeometry>
        </mxCell>
        <mxCell id="SbUpuCttrVF5YKWX0RyJ-154" value="0..1" style="text;html=1;resizable=0;labelBackgroundColor=default;align=center;verticalAlign=middle;fontColor=#4672C4;fontSize=13.3;fontFamily=Tahoma;" vertex="1" parent="SbUpuCttrVF5YKWX0RyJ-153">
          <mxGeometry x="-0.62" relative="1" as="geometry">
            <mxPoint as="offset" />
          </mxGeometry>
        </mxCell>
        <mxCell id="SbUpuCttrVF5YKWX0RyJ-155" value="0..*" style="text;html=1;resizable=0;labelBackgroundColor=default;align=center;verticalAlign=middle;fontColor=#4672C4;fontSize=13.3;fontFamily=Tahoma;" vertex="1" parent="SbUpuCttrVF5YKWX0RyJ-153">
          <mxGeometry x="0.6200000000000001" relative="1" as="geometry">
            <mxPoint as="offset" />
          </mxGeometry>
        </mxCell>
        <mxCell id="SbUpuCttrVF5YKWX0RyJ-156" value="" style="group;html=1;fontFamily=Tahoma;" vertex="1" parent="SbUpuCttrVF5YKWX0RyJ-1">
          <mxGeometry x="2920" y="-1464" width="192" height="84" as="geometry" />
        </mxCell>
        <mxCell id="SbUpuCttrVF5YKWX0RyJ-157" value="" style="shape=stencil(nZBLDoAgDERP0z3SIyjew0SURgSD+Lu9kMZoXLhwN9O+tukAlrNpJg1SzDH4QW/URgNYgZTkjA4UkwJUgGXng+6DX1zLfmoymdXo17xh5zmRJ6Q42BWCfc2oJfdAr+Yv+AP9Cb7OJ3H/2JG1HNGz/84klThPVCc=);whiteSpace=wrap;fontSize=13;strokeColor=#C8C8C8;fillOpacity=100;fillColor=#4672C4;strokeWidth=0.4;spacing=0;rounded=1;absoluteArcSize=1;arcSize=0.4;fontFamily=Tahoma;" vertex="1" parent="SbUpuCttrVF5YKWX0RyJ-156">
          <mxGeometry width="192" height="84" relative="1" as="geometry" />
        </mxCell>
        <mxCell id="SbUpuCttrVF5YKWX0RyJ-158" value="&lt;div style=&quot;display: flex; justify-content: center; text-align: center; align-items: baseline; font-size: 0; line-height: 1.25;margin-top: -2px;&quot;&gt;&lt;span&gt;&lt;span style=&quot;font-size: 23.3px; color: rgb(254, 255, 255);&quot;&gt;Test Request Summary&#xa;&lt;/span&gt;&lt;/span&gt;&lt;/div&gt;&lt;div style=&quot;display: flex; justify-content: center; text-align: center; align-items: baseline; font-size: 0; line-height: 1.25;margin-top: -2px;&quot;&gt;&lt;span&gt;&lt;span style=&quot;font-size: 23.3px; color: rgb(254, 255, 255);&quot;&gt;ProcedureRequest&lt;/span&gt;&lt;/span&gt;&lt;/div&gt;" style="strokeColor=none;fillColor=none;overflow=visible;whiteSpace=wrap;html=1;fontFamily=Tahoma;spacing=0;fillOpacity=100;rounded=1;absoluteArcSize=1;arcSize=0.4;strokeWidth=0.4;fontSize=13;" vertex="1" parent="SbUpuCttrVF5YKWX0RyJ-156">
          <mxGeometry x="0.047" y="0.094" width="173.952" height="68.208" relative="1" as="geometry" />
        </mxCell>
        <mxCell id="SbUpuCttrVF5YKWX0RyJ-159" value="" style="html=1;jettySize=18;whiteSpace=wrap;fontSize=13;strokeColor=#4672C4;strokeWidth=1.7;rounded=1;arcSize=2.22;edgeStyle=orthogonalEdgeStyle;startArrow=none;endArrow=none;exitX=0.5;exitY=1.002;exitPerimeter=0;entryX=0.5;entryY=-0.002;entryPerimeter=0;lucidId=bYvoLsKmY.p_;fontFamily=Tahoma;" edge="1" parent="SbUpuCttrVF5YKWX0RyJ-1" source="SbUpuCttrVF5YKWX0RyJ-156" target="SbUpuCttrVF5YKWX0RyJ-141">
          <mxGeometry width="100" height="100" relative="1" as="geometry">
            <Array as="points" />
          </mxGeometry>
        </mxCell>
        <mxCell id="SbUpuCttrVF5YKWX0RyJ-160" value="0..1" style="text;html=1;resizable=0;labelBackgroundColor=default;align=center;verticalAlign=middle;fontColor=#4672C4;fontSize=13.3;fontFamily=Tahoma;" vertex="1" parent="SbUpuCttrVF5YKWX0RyJ-159">
          <mxGeometry x="-0.62" relative="1" as="geometry">
            <mxPoint as="offset" />
          </mxGeometry>
        </mxCell>
        <mxCell id="SbUpuCttrVF5YKWX0RyJ-161" value="0..*" style="text;html=1;resizable=0;labelBackgroundColor=default;align=center;verticalAlign=middle;fontColor=#4672C4;fontSize=13.3;fontFamily=Tahoma;" vertex="1" parent="SbUpuCttrVF5YKWX0RyJ-159">
          <mxGeometry x="0.6200000000000001" relative="1" as="geometry">
            <mxPoint as="offset" />
          </mxGeometry>
        </mxCell>
        <mxCell id="SbUpuCttrVF5YKWX0RyJ-162" value="" style="group;html=1;fontFamily=Tahoma;" vertex="1" parent="SbUpuCttrVF5YKWX0RyJ-1">
          <mxGeometry x="2661" y="-1457" width="142" height="71" as="geometry" />
        </mxCell>
        <mxCell id="SbUpuCttrVF5YKWX0RyJ-163" value="" style="shape=stencil(nZBLDoAgDERP0z3SIyjew0SURgSD+Lu9kMZoXLhwN9O+tukAlrNpJg1SzDH4QW/URgNYgZTkjA4UkwJUgGXng+6DX1zLfmoymdXo17xh5zmRJ6Q42BWCfc2oJfdAr+Yv+AP9Cb7OJ3H/2JG1HNGz/84klThPVCc=);whiteSpace=wrap;fontSize=13;strokeColor=#F4F7FB;fillOpacity=100;strokeWidth=1.3;spacing=0;rounded=1;absoluteArcSize=1;arcSize=1.2;fontFamily=Tahoma;" vertex="1" parent="SbUpuCttrVF5YKWX0RyJ-162">
          <mxGeometry width="142" height="71" relative="1" as="geometry" />
        </mxCell>
        <mxCell id="SbUpuCttrVF5YKWX0RyJ-164" value="Requesting HCP" style="strokeColor=none;fillColor=none;overflow=visible;whiteSpace=wrap;fontSize=23.3;fontFamily=Tahoma;fontColor=#bdd0e9;align=center;spacing=0;fillOpacity=100;rounded=1;absoluteArcSize=1;arcSize=1.2;strokeWidth=1.3;" vertex="1" parent="SbUpuCttrVF5YKWX0RyJ-162">
          <mxGeometry x="0.047" y="0.094" width="128.65200000000002" height="57.652" relative="1" as="geometry" />
        </mxCell>
        <mxCell id="SbUpuCttrVF5YKWX0RyJ-165" value="" style="html=1;jettySize=18;whiteSpace=wrap;fontSize=13;strokeColor=#bdd0e9;strokeWidth=1.7;rounded=1;arcSize=2.22;edgeStyle=orthogonalEdgeStyle;startArrow=none;endArrow=none;exitX=-0.001;exitY=0.5;exitPerimeter=0;entryX=1.004;entryY=0.5;entryPerimeter=0;lucidId=bYvo6ymRAIdA;fontFamily=Tahoma;" edge="1" parent="SbUpuCttrVF5YKWX0RyJ-1" source="SbUpuCttrVF5YKWX0RyJ-156" target="SbUpuCttrVF5YKWX0RyJ-162">
          <mxGeometry width="100" height="100" relative="1" as="geometry">
            <Array as="points" />
          </mxGeometry>
        </mxCell>
        <mxCell id="SbUpuCttrVF5YKWX0RyJ-166" value="1.1" style="text;html=1;resizable=0;labelBackgroundColor=default;align=center;verticalAlign=middle;fontColor=#3d64ac;fontSize=13.3;fontFamily=Tahoma;" vertex="1" parent="SbUpuCttrVF5YKWX0RyJ-165">
          <mxGeometry x="-0.62" relative="1" as="geometry">
            <mxPoint as="offset" />
          </mxGeometry>
        </mxCell>
        <mxCell id="SbUpuCttrVF5YKWX0RyJ-167" value="1..1" style="text;html=1;resizable=0;labelBackgroundColor=default;align=center;verticalAlign=middle;fontColor=#3d64ac;fontSize=13.3;fontFamily=Tahoma;" vertex="1" parent="SbUpuCttrVF5YKWX0RyJ-165">
          <mxGeometry x="0.6000000000000001" relative="1" as="geometry">
            <mxPoint as="offset" />
          </mxGeometry>
        </mxCell>
        <mxCell id="SbUpuCttrVF5YKWX0RyJ-168" value="" style="group;html=1;fontFamily=Tahoma;" vertex="1" parent="SbUpuCttrVF5YKWX0RyJ-1">
          <mxGeometry x="2401" y="-1457" width="142" height="71" as="geometry" />
        </mxCell>
        <mxCell id="SbUpuCttrVF5YKWX0RyJ-169" value="" style="shape=stencil(nZBLDoAgDERP0z3SIyjew0SURgSD+Lu9kMZoXLhwN9O+tukAlrNpJg1SzDH4QW/URgNYgZTkjA4UkwJUgGXng+6DX1zLfmoymdXo17xh5zmRJ6Q42BWCfc2oJfdAr+Yv+AP9Cb7OJ3H/2JG1HNGz/84klThPVCc=);whiteSpace=wrap;fontSize=13;strokeColor=#F4F7FB;fillOpacity=100;strokeWidth=1.3;spacing=0;rounded=1;absoluteArcSize=1;arcSize=1.2;fontFamily=Tahoma;" vertex="1" parent="SbUpuCttrVF5YKWX0RyJ-168">
          <mxGeometry width="142" height="71" relative="1" as="geometry" />
        </mxCell>
        <mxCell id="SbUpuCttrVF5YKWX0RyJ-170" value="Requesting Organisation" style="strokeColor=none;fillColor=none;overflow=visible;whiteSpace=wrap;fontSize=23.3;fontFamily=Tahoma;fontColor=#bdd0e9;align=center;spacing=0;fillOpacity=100;rounded=1;absoluteArcSize=1;arcSize=1.2;strokeWidth=1.3;" vertex="1" parent="SbUpuCttrVF5YKWX0RyJ-168">
          <mxGeometry x="0.047" y="0.094" width="128.65200000000002" height="57.652" relative="1" as="geometry" />
        </mxCell>
        <mxCell id="SbUpuCttrVF5YKWX0RyJ-171" value="" style="html=1;jettySize=18;whiteSpace=wrap;fontSize=13;strokeColor=#bdd0e9;strokeWidth=1.7;rounded=1;arcSize=2.22;edgeStyle=orthogonalEdgeStyle;startArrow=none;endArrow=none;exitX=-0.004;exitY=0.5;exitPerimeter=0;entryX=1.004;entryY=0.5;entryPerimeter=0;lucidId=bYvoynb0X5VS;fontFamily=Tahoma;" edge="1" parent="SbUpuCttrVF5YKWX0RyJ-1" source="SbUpuCttrVF5YKWX0RyJ-162" target="SbUpuCttrVF5YKWX0RyJ-168">
          <mxGeometry width="100" height="100" relative="1" as="geometry">
            <Array as="points" />
          </mxGeometry>
        </mxCell>
        <mxCell id="SbUpuCttrVF5YKWX0RyJ-172" value="&lt;div style=&quot;display: flex; justify-content: center; text-align: center; align-items: baseline; font-size: 0; line-height: 1.25;margin-top: -2px;&quot;&gt;&lt;span&gt;&lt;span style=&quot;font-size: 13.3px; color: rgb(61, 100, 172);&quot;&gt;1..&lt;/span&gt;&lt;span style=&quot;font-size: 13.3px; color: rgb(61, 100, 172);&quot;&gt;*&lt;/span&gt;&lt;/span&gt;&lt;/div&gt;" style="text;html=1;resizable=0;labelBackgroundColor=default;align=center;verticalAlign=middle;fontFamily=Tahoma;" vertex="1" parent="SbUpuCttrVF5YKWX0RyJ-171">
          <mxGeometry x="-0.52" relative="1" as="geometry">
            <mxPoint as="offset" />
          </mxGeometry>
        </mxCell>
        <mxCell id="SbUpuCttrVF5YKWX0RyJ-173" value="1..1" style="text;html=1;resizable=0;labelBackgroundColor=default;align=center;verticalAlign=middle;fontColor=#3d64ac;fontSize=13.3;fontFamily=Tahoma;" vertex="1" parent="SbUpuCttrVF5YKWX0RyJ-171">
          <mxGeometry x="0.52" relative="1" as="geometry">
            <mxPoint as="offset" />
          </mxGeometry>
        </mxCell>
        <mxCell id="SbUpuCttrVF5YKWX0RyJ-174" value="" style="group;html=1;fontFamily=Tahoma;" vertex="1" parent="SbUpuCttrVF5YKWX0RyJ-1">
          <mxGeometry x="2661" y="-1292" width="142" height="71" as="geometry" />
        </mxCell>
        <mxCell id="SbUpuCttrVF5YKWX0RyJ-175" value="" style="shape=stencil(nZBLDoAgDERP0z3SIyjew0SURgSD+Lu9kMZoXLhwN9O+tukAlrNpJg1SzDH4QW/URgNYgZTkjA4UkwJUgGXng+6DX1zLfmoymdXo17xh5zmRJ6Q42BWCfc2oJfdAr+Yv+AP9Cb7OJ3H/2JG1HNGz/84klThPVCc=);whiteSpace=wrap;fontSize=13;strokeColor=#C8C8C8;fillOpacity=100;fillColor=#bfbfbf;strokeWidth=0.4;spacing=0;rounded=1;absoluteArcSize=1;arcSize=0.4;fontFamily=Tahoma;" vertex="1" parent="SbUpuCttrVF5YKWX0RyJ-174">
          <mxGeometry width="142" height="71" relative="1" as="geometry" />
        </mxCell>
        <mxCell id="SbUpuCttrVF5YKWX0RyJ-176" value="Test Report Document" style="strokeColor=none;fillColor=none;overflow=visible;whiteSpace=wrap;fontSize=23.3;fontFamily=Tahoma;fontColor=#FEFFFF;align=center;spacing=0;fillOpacity=100;rounded=1;absoluteArcSize=1;arcSize=0.4;strokeWidth=0.4;" vertex="1" parent="SbUpuCttrVF5YKWX0RyJ-174">
          <mxGeometry x="0.047" y="0.094" width="128.65200000000002" height="57.652" relative="1" as="geometry" />
        </mxCell>
        <mxCell id="SbUpuCttrVF5YKWX0RyJ-177" value="" style="html=1;jettySize=18;whiteSpace=wrap;fontSize=13;strokeColor=#4672C4;strokeWidth=1.7;rounded=1;arcSize=2.22;edgeStyle=orthogonalEdgeStyle;startArrow=none;endArrow=none;exitX=0.5;exitY=-0.003;exitPerimeter=0;entryX=0.165;entryY=-0.002;entryPerimeter=0;lucidId=bYvonQ2HZXdC;fontFamily=Tahoma;" edge="1" parent="SbUpuCttrVF5YKWX0RyJ-1" source="SbUpuCttrVF5YKWX0RyJ-174" target="SbUpuCttrVF5YKWX0RyJ-141">
          <mxGeometry width="100" height="100" relative="1" as="geometry">
            <Array as="points" />
          </mxGeometry>
        </mxCell>
        <mxCell id="SbUpuCttrVF5YKWX0RyJ-178" value="0..1" style="text;html=1;resizable=0;labelBackgroundColor=default;align=center;verticalAlign=middle;fontColor=#4672C4;fontSize=13.3;fontFamily=Tahoma;" vertex="1" parent="SbUpuCttrVF5YKWX0RyJ-177">
          <mxGeometry x="-0.86" relative="1" as="geometry">
            <mxPoint as="offset" />
          </mxGeometry>
        </mxCell>
        <mxCell id="SbUpuCttrVF5YKWX0RyJ-179" value="1..1" style="text;html=1;resizable=0;labelBackgroundColor=default;align=center;verticalAlign=middle;fontColor=#4672C4;fontSize=13.3;fontFamily=Tahoma;" vertex="1" parent="SbUpuCttrVF5YKWX0RyJ-177">
          <mxGeometry x="0.9163953946996535" relative="1" as="geometry">
            <mxPoint y="-2" as="offset" />
          </mxGeometry>
        </mxCell>
        <mxCell id="SbUpuCttrVF5YKWX0RyJ-180" value="" style="group;html=1;fontFamily=Tahoma;" vertex="1" parent="SbUpuCttrVF5YKWX0RyJ-1">
          <mxGeometry x="2661" y="-1127" width="142" height="71" as="geometry" />
        </mxCell>
        <mxCell id="SbUpuCttrVF5YKWX0RyJ-181" value="" style="shape=stencil(nZBLDoAgDERP0z3SIyjew0SURgSD+Lu9kMZoXLhwN9O+tukAlrNpJg1SzDH4QW/URgNYgZTkjA4UkwJUgGXng+6DX1zLfmoymdXo17xh5zmRJ6Q42BWCfc2oJfdAr+Yv+AP9Cb7OJ3H/2JG1HNGz/84klThPVCc=);whiteSpace=wrap;fontSize=13;strokeColor=#C8C8C8;fillOpacity=100;fillColor=#bfbfbf;strokeWidth=0.4;spacing=0;rounded=1;absoluteArcSize=1;arcSize=0.4;fontFamily=Tahoma;" vertex="1" parent="SbUpuCttrVF5YKWX0RyJ-180">
          <mxGeometry width="142" height="71" relative="1" as="geometry" />
        </mxCell>
        <mxCell id="SbUpuCttrVF5YKWX0RyJ-182" value="Test Result Document" style="strokeColor=none;fillColor=none;overflow=visible;whiteSpace=wrap;fontSize=23.3;fontFamily=Tahoma;fontColor=#FEFFFF;align=center;spacing=0;fillOpacity=100;rounded=1;absoluteArcSize=1;arcSize=0.4;strokeWidth=0.4;" vertex="1" parent="SbUpuCttrVF5YKWX0RyJ-180">
          <mxGeometry x="0.047" y="0.094" width="128.65200000000002" height="57.652" relative="1" as="geometry" />
        </mxCell>
        <mxCell id="SbUpuCttrVF5YKWX0RyJ-183" value="" style="html=1;jettySize=18;whiteSpace=wrap;fontSize=13;strokeColor=#4672C4;strokeWidth=1.7;rounded=1;arcSize=2.22;edgeStyle=orthogonalEdgeStyle;startArrow=none;endArrow=none;exitX=0.165;exitY=1.002;exitPerimeter=0;entryX=0.5;entryY=-0.003;entryPerimeter=0;lucidId=bYvoC1f9L8.~;fontFamily=Tahoma;" edge="1" parent="SbUpuCttrVF5YKWX0RyJ-1" source="SbUpuCttrVF5YKWX0RyJ-141" target="SbUpuCttrVF5YKWX0RyJ-180">
          <mxGeometry width="100" height="100" relative="1" as="geometry">
            <Array as="points" />
          </mxGeometry>
        </mxCell>
        <mxCell id="SbUpuCttrVF5YKWX0RyJ-184" value="1..1" style="text;html=1;resizable=0;labelBackgroundColor=default;align=center;verticalAlign=middle;fontColor=#4672C4;fontSize=13.3;fontFamily=Tahoma;" vertex="1" parent="SbUpuCttrVF5YKWX0RyJ-183">
          <mxGeometry x="-0.88" relative="1" as="geometry">
            <mxPoint as="offset" />
          </mxGeometry>
        </mxCell>
        <mxCell id="SbUpuCttrVF5YKWX0RyJ-185" value="0..*" style="text;html=1;resizable=0;labelBackgroundColor=default;align=center;verticalAlign=middle;fontColor=#4672C4;fontSize=13.3;fontFamily=Tahoma;" vertex="1" parent="SbUpuCttrVF5YKWX0RyJ-183">
          <mxGeometry x="0.8799999999999999" relative="1" as="geometry">
            <mxPoint as="offset" />
          </mxGeometry>
        </mxCell>
        <mxCell id="SbUpuCttrVF5YKWX0RyJ-186" value="" style="html=1;jettySize=18;whiteSpace=wrap;fontSize=13;strokeColor=#4672C4;strokeWidth=1.7;rounded=1;arcSize=2.22;edgeStyle=orthogonalEdgeStyle;startArrow=none;endArrow=none;exitX=-0.001;exitY=0.5;exitPerimeter=0;entryX=1.001;entryY=0.5;entryPerimeter=0;lucidId=bYvo72ti_BtR;fontFamily=Tahoma;" edge="1" parent="SbUpuCttrVF5YKWX0RyJ-1" source="SbUpuCttrVF5YKWX0RyJ-144" target="SbUpuCttrVF5YKWX0RyJ-180">
          <mxGeometry width="100" height="100" relative="1" as="geometry">
            <Array as="points" />
          </mxGeometry>
        </mxCell>
        <mxCell id="SbUpuCttrVF5YKWX0RyJ-187" value="0..1" style="text;html=1;resizable=0;labelBackgroundColor=default;align=center;verticalAlign=middle;fontColor=#4672C4;fontSize=13.3;fontFamily=Tahoma;" vertex="1" parent="SbUpuCttrVF5YKWX0RyJ-186">
          <mxGeometry x="-0.6799999999999999" relative="1" as="geometry">
            <mxPoint as="offset" />
          </mxGeometry>
        </mxCell>
        <mxCell id="SbUpuCttrVF5YKWX0RyJ-188" value="0..*" style="text;html=1;resizable=0;labelBackgroundColor=default;align=center;verticalAlign=middle;fontColor=#4672C4;fontSize=13.3;fontFamily=Tahoma;" vertex="1" parent="SbUpuCttrVF5YKWX0RyJ-186">
          <mxGeometry x="0.6799999999999999" relative="1" as="geometry">
            <mxPoint as="offset" />
          </mxGeometry>
        </mxCell>
        <mxCell id="SbUpuCttrVF5YKWX0RyJ-189" value="" style="html=1;jettySize=18;whiteSpace=wrap;fontSize=13;strokeColor=#4672C4;strokeWidth=1.7;rounded=1;arcSize=2.22;edgeStyle=orthogonalEdgeStyle;startArrow=none;endArrow=none;exitX=0.165;exitY=-0.003;exitPerimeter=0;entryX=0.5;entryY=1.003;entryPerimeter=0;lucidId=bYvoxjZPHBj_;fontFamily=Tahoma;" edge="1" parent="SbUpuCttrVF5YKWX0RyJ-1" source="SbUpuCttrVF5YKWX0RyJ-147" target="SbUpuCttrVF5YKWX0RyJ-180">
          <mxGeometry width="100" height="100" relative="1" as="geometry">
            <Array as="points" />
          </mxGeometry>
        </mxCell>
        <mxCell id="SbUpuCttrVF5YKWX0RyJ-190" value="0..1" style="text;html=1;resizable=0;labelBackgroundColor=default;align=center;verticalAlign=middle;fontColor=#4672C4;fontSize=13.3;fontFamily=Tahoma;" vertex="1" parent="SbUpuCttrVF5YKWX0RyJ-189">
          <mxGeometry x="-0.9300009706936443" relative="1" as="geometry">
            <mxPoint as="offset" />
          </mxGeometry>
        </mxCell>
        <mxCell id="SbUpuCttrVF5YKWX0RyJ-191" value="0..*" style="text;html=1;resizable=0;labelBackgroundColor=default;align=center;verticalAlign=middle;fontColor=#4672C4;fontSize=13.3;fontFamily=Tahoma;" vertex="1" parent="SbUpuCttrVF5YKWX0RyJ-189">
          <mxGeometry x="0.8799999999999999" relative="1" as="geometry">
            <mxPoint as="offset" />
          </mxGeometry>
        </mxCell>
        <mxCell id="SbUpuCttrVF5YKWX0RyJ-192" value="" style="group;html=1;fontFamily=Tahoma;" vertex="1" parent="SbUpuCttrVF5YKWX0RyJ-1">
          <mxGeometry x="3228" y="-1127" width="142" height="71" as="geometry" />
        </mxCell>
        <mxCell id="SbUpuCttrVF5YKWX0RyJ-193" value="" style="shape=stencil(nZBLDoAgDERP0z3SIyjew0SURgSD+Lu9kMZoXLhwN9O+tukAlrNpJg1SzDH4QW/URgNYgZTkjA4UkwJUgGXng+6DX1zLfmoymdXo17xh5zmRJ6Q42BWCfc2oJfdAr+Yv+AP9Cb7OJ3H/2JG1HNGz/84klThPVCc=);whiteSpace=wrap;fontSize=13;strokeColor=#C8C8C8;fillOpacity=100;fillColor=#4672C4;strokeWidth=0.4;spacing=0;rounded=1;absoluteArcSize=1;arcSize=0.4;fontFamily=Tahoma;" vertex="1" parent="SbUpuCttrVF5YKWX0RyJ-192">
          <mxGeometry width="142" height="71" relative="1" as="geometry" />
        </mxCell>
        <mxCell id="SbUpuCttrVF5YKWX0RyJ-194" value="&lt;div style=&quot;display: flex; justify-content: center; text-align: center; align-items: baseline; font-size: 0; line-height: 1.25;margin-top: -2px;&quot;&gt;&lt;span&gt;&lt;span style=&quot;font-size: 23.3px; color: rgb(254, 255, 255);&quot;&gt;Specimen&#xa;&lt;/span&gt;&lt;/span&gt;&lt;/div&gt;&lt;div style=&quot;display: flex; justify-content: center; text-align: center; align-items: baseline; font-size: 0; line-height: 1.25;margin-top: -2px;&quot;&gt;&lt;span&gt;&lt;span style=&quot;font-size: 23.3px; color: rgb(254, 255, 255);&quot;&gt;Specimen&lt;/span&gt;&lt;/span&gt;&lt;/div&gt;" style="strokeColor=none;fillColor=none;overflow=visible;whiteSpace=wrap;html=1;fontFamily=Tahoma;spacing=0;fillOpacity=100;rounded=1;absoluteArcSize=1;arcSize=0.4;strokeWidth=0.4;fontSize=13;" vertex="1" parent="SbUpuCttrVF5YKWX0RyJ-192">
          <mxGeometry x="0.047" y="0.094" width="128.65200000000002" height="57.652" relative="1" as="geometry" />
        </mxCell>
        <mxCell id="SbUpuCttrVF5YKWX0RyJ-195" value="" style="html=1;jettySize=18;whiteSpace=wrap;fontSize=13;strokeColor=#4672C4;strokeWidth=1.7;rounded=1;arcSize=2.22;edgeStyle=orthogonalEdgeStyle;startArrow=none;endArrow=none;exitX=-0.001;exitY=0.5;exitPerimeter=0;entryX=1.001;entryY=0.5;entryPerimeter=0;lucidId=bYvoUNojqTSC;fontFamily=Tahoma;" edge="1" parent="SbUpuCttrVF5YKWX0RyJ-1" source="SbUpuCttrVF5YKWX0RyJ-192" target="SbUpuCttrVF5YKWX0RyJ-144">
          <mxGeometry width="100" height="100" relative="1" as="geometry">
            <Array as="points" />
          </mxGeometry>
        </mxCell>
        <mxCell id="SbUpuCttrVF5YKWX0RyJ-196" value="0..*" style="text;html=1;resizable=0;labelBackgroundColor=default;align=center;verticalAlign=middle;fontColor=#4672C4;fontSize=13.3;fontFamily=Tahoma;" vertex="1" parent="SbUpuCttrVF5YKWX0RyJ-195">
          <mxGeometry x="-0.6799999999999999" relative="1" as="geometry">
            <mxPoint as="offset" />
          </mxGeometry>
        </mxCell>
        <mxCell id="SbUpuCttrVF5YKWX0RyJ-197" value="0..*" style="text;html=1;resizable=0;labelBackgroundColor=default;align=center;verticalAlign=middle;fontColor=#4672C4;fontSize=13.3;fontFamily=Tahoma;" vertex="1" parent="SbUpuCttrVF5YKWX0RyJ-195">
          <mxGeometry x="0.6799999999999999" relative="1" as="geometry">
            <mxPoint as="offset" />
          </mxGeometry>
        </mxCell>
        <mxCell id="SbUpuCttrVF5YKWX0RyJ-198" value="" style="html=1;jettySize=18;whiteSpace=wrap;fontSize=13;strokeColor=#4672C4;strokeWidth=1.7;rounded=1;arcSize=2.22;edgeStyle=orthogonalEdgeStyle;startArrow=none;endArrow=none;exitX=0.5;exitY=-0.003;exitPerimeter=0;entryX=0.835;entryY=1.002;entryPerimeter=0;lucidId=bYvoKhlJ20tw;fontFamily=Tahoma;" edge="1" parent="SbUpuCttrVF5YKWX0RyJ-1" source="SbUpuCttrVF5YKWX0RyJ-192" target="SbUpuCttrVF5YKWX0RyJ-141">
          <mxGeometry width="100" height="100" relative="1" as="geometry">
            <Array as="points" />
          </mxGeometry>
        </mxCell>
        <mxCell id="SbUpuCttrVF5YKWX0RyJ-199" value="0..*" style="text;html=1;resizable=0;labelBackgroundColor=default;align=center;verticalAlign=middle;fontColor=#4672C4;fontSize=13.3;fontFamily=Tahoma;" vertex="1" parent="SbUpuCttrVF5YKWX0RyJ-198">
          <mxGeometry x="-0.9230171226284906" relative="1" as="geometry">
            <mxPoint as="offset" />
          </mxGeometry>
        </mxCell>
        <mxCell id="SbUpuCttrVF5YKWX0RyJ-200" value="0..*" style="text;html=1;resizable=0;labelBackgroundColor=default;align=center;verticalAlign=middle;fontColor=#4672C4;fontSize=13.3;fontFamily=Tahoma;" vertex="1" parent="SbUpuCttrVF5YKWX0RyJ-198">
          <mxGeometry x="0.8799999999999999" relative="1" as="geometry">
            <mxPoint as="offset" />
          </mxGeometry>
        </mxCell>
        <mxCell id="SbUpuCttrVF5YKWX0RyJ-201" value="" style="html=1;jettySize=18;whiteSpace=wrap;fontSize=13;strokeColor=#4672C4;strokeWidth=1.7;rounded=1;arcSize=2.22;edgeStyle=orthogonalEdgeStyle;startArrow=none;endArrow=none;exitX=0.5;exitY=1.003;exitPerimeter=0;entryX=0.835;entryY=-0.003;entryPerimeter=0;lucidId=bYvo7fLlRZEa;fontFamily=Tahoma;" edge="1" parent="SbUpuCttrVF5YKWX0RyJ-1" source="SbUpuCttrVF5YKWX0RyJ-192" target="SbUpuCttrVF5YKWX0RyJ-147">
          <mxGeometry width="100" height="100" relative="1" as="geometry">
            <Array as="points" />
          </mxGeometry>
        </mxCell>
        <mxCell id="SbUpuCttrVF5YKWX0RyJ-202" value="0..*" style="text;html=1;resizable=0;labelBackgroundColor=default;align=center;verticalAlign=middle;fontColor=#4672C4;fontSize=13.3;fontFamily=Tahoma;" vertex="1" parent="SbUpuCttrVF5YKWX0RyJ-201">
          <mxGeometry x="-0.88" relative="1" as="geometry">
            <mxPoint as="offset" />
          </mxGeometry>
        </mxCell>
        <mxCell id="SbUpuCttrVF5YKWX0RyJ-203" value="0..*" style="text;html=1;resizable=0;labelBackgroundColor=default;align=center;verticalAlign=middle;fontColor=#4672C4;fontSize=13.3;fontFamily=Tahoma;" vertex="1" parent="SbUpuCttrVF5YKWX0RyJ-201">
          <mxGeometry x="0.8999999999999999" relative="1" as="geometry">
            <mxPoint as="offset" />
          </mxGeometry>
        </mxCell>
        <mxCell id="SbUpuCttrVF5YKWX0RyJ-204" value="" style="group;html=1;fontFamily=Tahoma;" vertex="1" parent="SbUpuCttrVF5YKWX0RyJ-1">
          <mxGeometry x="3488" y="-1127" width="142" height="71" as="geometry" />
        </mxCell>
        <mxCell id="SbUpuCttrVF5YKWX0RyJ-205" value="" style="shape=stencil(nZBLDoAgDERP0z3SIyjew0SURgSD+Lu9kMZoXLhwN9O+tukAlrNpJg1SzDH4QW/URgNYgZTkjA4UkwJUgGXng+6DX1zLfmoymdXo17xh5zmRJ6Q42BWCfc2oJfdAr+Yv+AP9Cb7OJ3H/2JG1HNGz/84klThPVCc=);whiteSpace=wrap;overflow=block;blockSpacing=1;html=1;strokeColor=#F4F7FB;fillOpacity=100;strokeWidth=1.3;fontSize=13;spacing=0;rounded=1;absoluteArcSize=1;arcSize=1.2;fontFamily=Tahoma;" vertex="1" parent="SbUpuCttrVF5YKWX0RyJ-204">
          <mxGeometry width="142" height="71" relative="1" as="geometry" />
        </mxCell>
        <mxCell id="SbUpuCttrVF5YKWX0RyJ-206" value="Specimen Collecting HCP" style="strokeColor=none;fillColor=none;overflow=visible;whiteSpace=wrap;fontSize=23.3;fontFamily=Tahoma;fontColor=#bdd0e9;align=center;spacing=0;fillOpacity=100;rounded=1;absoluteArcSize=1;arcSize=1.2;strokeWidth=1.3;" vertex="1" parent="SbUpuCttrVF5YKWX0RyJ-204">
          <mxGeometry x="0.047" y="0.094" width="128.65200000000002" height="57.652" relative="1" as="geometry" />
        </mxCell>
        <mxCell id="SbUpuCttrVF5YKWX0RyJ-207" value="" style="html=1;jettySize=18;whiteSpace=wrap;fontSize=13;strokeColor=#bdd0e9;strokeWidth=1.7;rounded=1;arcSize=2.22;edgeStyle=orthogonalEdgeStyle;startArrow=none;endArrow=none;exitX=-0.004;exitY=0.5;exitPerimeter=0;entryX=1.001;entryY=0.5;entryPerimeter=0;lucidId=bYvoEjWbEqH~;fontFamily=Tahoma;" edge="1" parent="SbUpuCttrVF5YKWX0RyJ-1" source="SbUpuCttrVF5YKWX0RyJ-204" target="SbUpuCttrVF5YKWX0RyJ-192">
          <mxGeometry width="100" height="100" relative="1" as="geometry">
            <Array as="points" />
          </mxGeometry>
        </mxCell>
        <mxCell id="SbUpuCttrVF5YKWX0RyJ-208" value="0..1" style="text;html=1;resizable=0;labelBackgroundColor=default;align=center;verticalAlign=middle;fontColor=#3d64ac;fontSize=13.3;fontFamily=Tahoma;" vertex="1" parent="SbUpuCttrVF5YKWX0RyJ-207">
          <mxGeometry x="-0.52" relative="1" as="geometry">
            <mxPoint as="offset" />
          </mxGeometry>
        </mxCell>
        <mxCell id="SbUpuCttrVF5YKWX0RyJ-209" value="1..1" style="text;html=1;resizable=0;labelBackgroundColor=default;align=center;verticalAlign=middle;fontColor=#3d64ac;fontSize=13.3;fontFamily=Tahoma;" vertex="1" parent="SbUpuCttrVF5YKWX0RyJ-207">
          <mxGeometry x="0.52" relative="1" as="geometry">
            <mxPoint as="offset" />
          </mxGeometry>
        </mxCell>
        <mxCell id="SbUpuCttrVF5YKWX0RyJ-210" value="" style="group;html=1;fontFamily=Tahoma;" vertex="1" parent="SbUpuCttrVF5YKWX0RyJ-1">
          <mxGeometry x="3488" y="-961" width="142" height="71" as="geometry" />
        </mxCell>
        <mxCell id="SbUpuCttrVF5YKWX0RyJ-211" value="" style="shape=stencil(nZBLDoAgDERP0z3SIyjew0SURgSD+Lu9kMZoXLhwN9O+tukAlrNpJg1SzDH4QW/URgNYgZTkjA4UkwJUgGXng+6DX1zLfmoymdXo17xh5zmRJ6Q42BWCfc2oJfdAr+Yv+AP9Cb7OJ3H/2JG1HNGz/84klThPVCc=);whiteSpace=wrap;fontSize=13;strokeColor=#F4F7FB;fillOpacity=100;strokeWidth=1.3;spacing=0;rounded=1;absoluteArcSize=1;arcSize=1.2;fontFamily=Tahoma;" vertex="1" parent="SbUpuCttrVF5YKWX0RyJ-210">
          <mxGeometry width="142" height="71" relative="1" as="geometry" />
        </mxCell>
        <mxCell id="SbUpuCttrVF5YKWX0RyJ-212" value="Specimen Collecting Organisation" style="strokeColor=none;fillColor=none;overflow=visible;whiteSpace=wrap;fontSize=23.3;fontFamily=Tahoma;fontColor=#bdd0e9;align=center;spacing=0;fillOpacity=100;rounded=1;absoluteArcSize=1;arcSize=1.2;strokeWidth=1.3;" vertex="1" parent="SbUpuCttrVF5YKWX0RyJ-210">
          <mxGeometry x="0.047" y="0.094" width="128.65200000000002" height="57.652" relative="1" as="geometry" />
        </mxCell>
        <mxCell id="SbUpuCttrVF5YKWX0RyJ-213" value="" style="html=1;jettySize=18;whiteSpace=wrap;fontSize=13;strokeColor=#bdd0e9;strokeWidth=1.7;rounded=1;arcSize=2.22;edgeStyle=orthogonalEdgeStyle;startArrow=none;endArrow=none;exitX=0.5;exitY=1.009;exitPerimeter=0;entryX=0.5;entryY=-0.009;entryPerimeter=0;lucidId=bYvo.44Xee~4;fontFamily=Tahoma;" edge="1" parent="SbUpuCttrVF5YKWX0RyJ-1" source="SbUpuCttrVF5YKWX0RyJ-204" target="SbUpuCttrVF5YKWX0RyJ-210">
          <mxGeometry width="100" height="100" relative="1" as="geometry">
            <Array as="points" />
          </mxGeometry>
        </mxCell>
        <mxCell id="SbUpuCttrVF5YKWX0RyJ-214" value="&lt;div style=&quot;display: flex; justify-content: center; text-align: center; align-items: baseline; font-size: 0; line-height: 1.25;margin-top: -2px;&quot;&gt;&lt;span&gt;&lt;span style=&quot;font-size: 13.3px; color: rgb(61, 100, 172);&quot;&gt;1..&lt;/span&gt;&lt;span style=&quot;font-size: 13.3px; color: rgb(61, 100, 172);&quot;&gt;*&lt;/span&gt;&lt;/span&gt;&lt;/div&gt;" style="text;html=1;resizable=0;labelBackgroundColor=default;align=center;verticalAlign=middle;fontFamily=Tahoma;" vertex="1" parent="SbUpuCttrVF5YKWX0RyJ-213">
          <mxGeometry x="-0.48" relative="1" as="geometry">
            <mxPoint as="offset" />
          </mxGeometry>
        </mxCell>
        <mxCell id="SbUpuCttrVF5YKWX0RyJ-215" value="1..1" style="text;html=1;resizable=0;labelBackgroundColor=default;align=center;verticalAlign=middle;fontColor=#3d64ac;fontSize=13.3;fontFamily=Tahoma;" vertex="1" parent="SbUpuCttrVF5YKWX0RyJ-213">
          <mxGeometry x="0.48" relative="1" as="geometry">
            <mxPoint as="offset" />
          </mxGeometry>
        </mxCell>
        <mxCell id="SbUpuCttrVF5YKWX0RyJ-216" value="" style="group;html=1;fontFamily=Tahoma;" vertex="1" parent="SbUpuCttrVF5YKWX0RyJ-1">
          <mxGeometry x="2661" y="-819" width="142" height="71" as="geometry" />
        </mxCell>
        <mxCell id="SbUpuCttrVF5YKWX0RyJ-217" value="" style="shape=stencil(nZBLDoAgDERP0z3SIyjew0SURgSD+Lu9kMZoXLhwN9O+tukAlrNpJg1SzDH4QW/URgNYgZTkjA4UkwJUgGXng+6DX1zLfmoymdXo17xh5zmRJ6Q42BWCfc2oJfdAr+Yv+AP9Cb7OJ3H/2JG1HNGz/84klThPVCc=);whiteSpace=wrap;fontSize=13;strokeColor=#F4F7FB;fillOpacity=100;strokeWidth=1.3;spacing=0;rounded=1;absoluteArcSize=1;arcSize=1.2;fontFamily=Tahoma;" vertex="1" parent="SbUpuCttrVF5YKWX0RyJ-216">
          <mxGeometry width="142" height="71" relative="1" as="geometry" />
        </mxCell>
        <mxCell id="SbUpuCttrVF5YKWX0RyJ-218" value="Performing HCP" style="strokeColor=none;fillColor=none;overflow=visible;whiteSpace=wrap;fontSize=23.3;fontFamily=Tahoma;fontColor=#bdd0e9;align=center;spacing=0;fillOpacity=100;rounded=1;absoluteArcSize=1;arcSize=1.2;strokeWidth=1.3;" vertex="1" parent="SbUpuCttrVF5YKWX0RyJ-216">
          <mxGeometry x="0.047" y="0.094" width="128.65200000000002" height="57.652" relative="1" as="geometry" />
        </mxCell>
        <mxCell id="SbUpuCttrVF5YKWX0RyJ-219" value="" style="html=1;jettySize=18;whiteSpace=wrap;fontSize=13;strokeColor=#bdd0e9;strokeWidth=1.7;rounded=1;arcSize=2.22;edgeStyle=orthogonalEdgeStyle;startArrow=none;endArrow=none;exitX=1.004;exitY=0.668;exitPerimeter=0;entryX=0.332;entryY=1.003;entryPerimeter=0;lucidId=bYvoNKCSTXMn;fontFamily=Tahoma;" edge="1" parent="SbUpuCttrVF5YKWX0RyJ-1" source="SbUpuCttrVF5YKWX0RyJ-216" target="SbUpuCttrVF5YKWX0RyJ-147">
          <mxGeometry width="100" height="100" relative="1" as="geometry">
            <Array as="points" />
          </mxGeometry>
        </mxCell>
        <mxCell id="SbUpuCttrVF5YKWX0RyJ-220" value="1..*" style="text;html=1;resizable=0;labelBackgroundColor=default;align=center;verticalAlign=middle;fontColor=#3d64ac;fontSize=13.3;fontFamily=Tahoma;" vertex="1" parent="SbUpuCttrVF5YKWX0RyJ-219">
          <mxGeometry x="-0.8" relative="1" as="geometry">
            <mxPoint as="offset" />
          </mxGeometry>
        </mxCell>
        <mxCell id="SbUpuCttrVF5YKWX0RyJ-221" value="1..1" style="text;html=1;resizable=0;labelBackgroundColor=default;align=center;verticalAlign=middle;fontColor=#3d64ac;fontSize=13.3;fontFamily=Tahoma;" vertex="1" parent="SbUpuCttrVF5YKWX0RyJ-219">
          <mxGeometry x="0.9018798335681439" relative="1" as="geometry">
            <mxPoint as="offset" />
          </mxGeometry>
        </mxCell>
        <mxCell id="SbUpuCttrVF5YKWX0RyJ-222" value="" style="html=1;jettySize=18;whiteSpace=wrap;fontSize=13;strokeColor=#bdd0e9;strokeWidth=1.7;rounded=1;arcSize=2.22;edgeStyle=orthogonalEdgeStyle;startArrow=none;endArrow=none;exitX=1.004;exitY=0.332;exitPerimeter=0;entryX=0.165;entryY=1.003;entryPerimeter=0;lucidId=bYvoOlZ~GZOU;fontFamily=Tahoma;" edge="1" parent="SbUpuCttrVF5YKWX0RyJ-1" source="SbUpuCttrVF5YKWX0RyJ-216" target="SbUpuCttrVF5YKWX0RyJ-144">
          <mxGeometry width="100" height="100" relative="1" as="geometry">
            <Array as="points">
              <mxPoint x="2891" y="-796" />
              <mxPoint x="2891" y="-1039" />
              <mxPoint x="2968" y="-1039" />
            </Array>
          </mxGeometry>
        </mxCell>
        <mxCell id="SbUpuCttrVF5YKWX0RyJ-223" value="1..*" style="text;html=1;resizable=0;labelBackgroundColor=default;align=center;verticalAlign=middle;fontColor=#3d64ac;fontSize=13.3;fontFamily=Tahoma;" vertex="1" parent="SbUpuCttrVF5YKWX0RyJ-222">
          <mxGeometry x="-0.86" relative="1" as="geometry">
            <mxPoint as="offset" />
          </mxGeometry>
        </mxCell>
        <mxCell id="SbUpuCttrVF5YKWX0RyJ-224" value="1..1" style="text;html=1;resizable=0;labelBackgroundColor=default;align=center;verticalAlign=middle;fontColor=#3d64ac;fontSize=13.3;fontFamily=Tahoma;" vertex="1" parent="SbUpuCttrVF5YKWX0RyJ-222">
          <mxGeometry x="0.8554478716485303" relative="1" as="geometry" />
        </mxCell>
        <mxCell id="SbUpuCttrVF5YKWX0RyJ-225" value="" style="html=1;jettySize=18;whiteSpace=wrap;fontSize=13;strokeColor=#bdd0e9;strokeWidth=1.7;rounded=1;arcSize=2.22;edgeStyle=orthogonalEdgeStyle;startArrow=none;endArrow=none;exitX=0.5;exitY=-0.009;exitPerimeter=0;entryX=-0.001;entryY=0.333;entryPerimeter=0;lucidId=bYvo4yWqzErK;fontFamily=Tahoma;" edge="1" parent="SbUpuCttrVF5YKWX0RyJ-1" source="SbUpuCttrVF5YKWX0RyJ-216" target="SbUpuCttrVF5YKWX0RyJ-141">
          <mxGeometry width="100" height="100" relative="1" as="geometry">
            <Array as="points">
              <mxPoint x="2732" y="-837" />
              <mxPoint x="2861" y="-837" />
              <mxPoint x="2861" y="-1267" />
            </Array>
          </mxGeometry>
        </mxCell>
        <mxCell id="SbUpuCttrVF5YKWX0RyJ-226" value="1..*" style="text;html=1;resizable=0;labelBackgroundColor=default;align=center;verticalAlign=middle;fontColor=#3d64ac;fontSize=13.3;fontFamily=Tahoma;" vertex="1" parent="SbUpuCttrVF5YKWX0RyJ-225">
          <mxGeometry x="-0.94" relative="1" as="geometry">
            <mxPoint as="offset" />
          </mxGeometry>
        </mxCell>
        <mxCell id="SbUpuCttrVF5YKWX0RyJ-227" value="1..1" style="text;html=1;resizable=0;labelBackgroundColor=default;align=center;verticalAlign=middle;fontColor=#3d64ac;fontSize=13.3;fontFamily=Tahoma;" vertex="1" parent="SbUpuCttrVF5YKWX0RyJ-225">
          <mxGeometry x="0.94" relative="1" as="geometry">
            <mxPoint as="offset" />
          </mxGeometry>
        </mxCell>
        <mxCell id="SbUpuCttrVF5YKWX0RyJ-228" value="" style="group;html=1;fontFamily=Tahoma;" vertex="1" parent="SbUpuCttrVF5YKWX0RyJ-1">
          <mxGeometry x="2401" y="-819" width="142" height="71" as="geometry" />
        </mxCell>
        <mxCell id="SbUpuCttrVF5YKWX0RyJ-229" value="" style="shape=stencil(nZBLDoAgDERP0z3SIyjew0SURgSD+Lu9kMZoXLhwN9O+tukAlrNpJg1SzDH4QW/URgNYgZTkjA4UkwJUgGXng+6DX1zLfmoymdXo17xh5zmRJ6Q42BWCfc2oJfdAr+Yv+AP9Cb7OJ3H/2JG1HNGz/84klThPVCc=);whiteSpace=wrap;fontSize=13;strokeColor=#F4F7FB;fillOpacity=100;strokeWidth=1.3;spacing=0;rounded=1;absoluteArcSize=1;arcSize=1.2;fontFamily=Tahoma;" vertex="1" parent="SbUpuCttrVF5YKWX0RyJ-228">
          <mxGeometry width="142" height="71" relative="1" as="geometry" />
        </mxCell>
        <mxCell id="SbUpuCttrVF5YKWX0RyJ-230" value="Performing Organisation" style="strokeColor=none;fillColor=none;overflow=visible;whiteSpace=wrap;fontSize=23.3;fontFamily=Tahoma;fontColor=#bdd0e9;align=center;spacing=0;fillOpacity=100;rounded=1;absoluteArcSize=1;arcSize=1.2;strokeWidth=1.3;" vertex="1" parent="SbUpuCttrVF5YKWX0RyJ-228">
          <mxGeometry x="0.047" y="0.094" width="128.65200000000002" height="57.652" relative="1" as="geometry" />
        </mxCell>
        <mxCell id="SbUpuCttrVF5YKWX0RyJ-231" value="" style="html=1;jettySize=18;whiteSpace=wrap;fontSize=13;strokeColor=#bdd0e9;strokeWidth=1.7;rounded=1;arcSize=2.22;edgeStyle=orthogonalEdgeStyle;startArrow=none;endArrow=none;exitX=-0.004;exitY=0.5;exitPerimeter=0;entryX=1.004;entryY=0.5;entryPerimeter=0;lucidId=bYvogPCmM4XX;fontFamily=Tahoma;" edge="1" parent="SbUpuCttrVF5YKWX0RyJ-1" source="SbUpuCttrVF5YKWX0RyJ-216" target="SbUpuCttrVF5YKWX0RyJ-228">
          <mxGeometry width="100" height="100" relative="1" as="geometry">
            <Array as="points" />
          </mxGeometry>
        </mxCell>
        <mxCell id="SbUpuCttrVF5YKWX0RyJ-232" value="&lt;div style=&quot;display: flex; justify-content: center; text-align: center; align-items: baseline; font-size: 0; line-height: 1.25;margin-top: -2px;&quot;&gt;&lt;span&gt;&lt;span style=&quot;font-size: 13.3px; color: rgb(61, 100, 172);&quot;&gt;1..&lt;/span&gt;&lt;span style=&quot;font-size: 13.3px; color: rgb(61, 100, 172);&quot;&gt;*&lt;/span&gt;&lt;/span&gt;&lt;/div&gt;" style="text;html=1;resizable=0;labelBackgroundColor=default;align=center;verticalAlign=middle;fontFamily=Tahoma;" vertex="1" parent="SbUpuCttrVF5YKWX0RyJ-231">
          <mxGeometry x="-0.52" relative="1" as="geometry">
            <mxPoint as="offset" />
          </mxGeometry>
        </mxCell>
        <mxCell id="SbUpuCttrVF5YKWX0RyJ-233" value="1..1" style="text;html=1;resizable=0;labelBackgroundColor=default;align=center;verticalAlign=middle;fontColor=#3d64ac;fontSize=13.3;fontFamily=Tahoma;" vertex="1" parent="SbUpuCttrVF5YKWX0RyJ-231">
          <mxGeometry x="0.52" relative="1" as="geometry">
            <mxPoint as="offset" />
          </mxGeometry>
        </mxCell>
        <mxCell id="SbUpuCttrVF5YKWX0RyJ-234" value="" style="group;html=1;fontFamily=Tahoma;" vertex="1" parent="SbUpuCttrVF5YKWX0RyJ-1">
          <mxGeometry x="3228" y="-819" width="142" height="71" as="geometry" />
        </mxCell>
        <mxCell id="SbUpuCttrVF5YKWX0RyJ-235" value="" style="shape=stencil(nZBLDoAgDERP0z3SIyjew0SURgSD+Lu9kMZoXLhwN9O+tukAlrNpJg1SzDH4QW/URgNYgZTkjA4UkwJUgGXng+6DX1zLfmoymdXo17xh5zmRJ6Q42BWCfc2oJfdAr+Yv+AP9Cb7OJ3H/2JG1HNGz/84klThPVCc=);whiteSpace=wrap;fontSize=13;strokeColor=#F4F7FB;fillOpacity=100;strokeWidth=1.3;spacing=0;rounded=1;absoluteArcSize=1;arcSize=1.2;fontFamily=Tahoma;" vertex="1" parent="SbUpuCttrVF5YKWX0RyJ-234">
          <mxGeometry width="142" height="71" relative="1" as="geometry" />
        </mxCell>
        <mxCell id="SbUpuCttrVF5YKWX0RyJ-236" value="Receiving HCP" style="strokeColor=none;fillColor=none;overflow=visible;whiteSpace=wrap;fontSize=23.3;fontFamily=Tahoma;fontColor=#bdd0e9;align=center;spacing=0;fillOpacity=100;rounded=1;absoluteArcSize=1;arcSize=1.2;strokeWidth=1.3;" vertex="1" parent="SbUpuCttrVF5YKWX0RyJ-234">
          <mxGeometry x="0.047" y="0.094" width="128.65200000000002" height="57.652" relative="1" as="geometry" />
        </mxCell>
        <mxCell id="SbUpuCttrVF5YKWX0RyJ-237" value="" style="group;html=1;fontFamily=Tahoma;" vertex="1" parent="SbUpuCttrVF5YKWX0RyJ-1">
          <mxGeometry x="3488" y="-819" width="142" height="71" as="geometry" />
        </mxCell>
        <mxCell id="SbUpuCttrVF5YKWX0RyJ-238" value="" style="shape=stencil(nZBLDoAgDERP0z3SIyjew0SURgSD+Lu9kMZoXLhwN9O+tukAlrNpJg1SzDH4QW/URgNYgZTkjA4UkwJUgGXng+6DX1zLfmoymdXo17xh5zmRJ6Q42BWCfc2oJfdAr+Yv+AP9Cb7OJ3H/2JG1HNGz/84klThPVCc=);whiteSpace=wrap;overflow=block;blockSpacing=1;html=1;strokeColor=#F4F7FB;fillOpacity=100;strokeWidth=1.3;fontSize=13;spacing=0;rounded=1;absoluteArcSize=1;arcSize=1.2;fontFamily=Tahoma;" vertex="1" parent="SbUpuCttrVF5YKWX0RyJ-237">
          <mxGeometry width="142" height="71" relative="1" as="geometry" />
        </mxCell>
        <mxCell id="SbUpuCttrVF5YKWX0RyJ-239" value="Receiving Organisation" style="strokeColor=none;fillColor=none;overflow=visible;whiteSpace=wrap;fontSize=23.3;fontFamily=Tahoma;fontColor=#bdd0e9;align=center;spacing=0;fillOpacity=100;rounded=1;absoluteArcSize=1;arcSize=1.2;strokeWidth=1.3;" vertex="1" parent="SbUpuCttrVF5YKWX0RyJ-237">
          <mxGeometry x="0.047" y="0.094" width="128.65200000000002" height="57.652" relative="1" as="geometry" />
        </mxCell>
        <mxCell id="SbUpuCttrVF5YKWX0RyJ-240" value="" style="html=1;jettySize=18;whiteSpace=wrap;fontSize=13;strokeColor=#bdd0e9;strokeWidth=1.7;rounded=1;arcSize=2.22;edgeStyle=orthogonalEdgeStyle;startArrow=none;endArrow=none;exitX=-0.004;exitY=0.5;exitPerimeter=0;entryX=1.004;entryY=0.5;entryPerimeter=0;lucidId=bYvoJk7v~Xls;fontFamily=Tahoma;" edge="1" parent="SbUpuCttrVF5YKWX0RyJ-1" source="SbUpuCttrVF5YKWX0RyJ-237" target="SbUpuCttrVF5YKWX0RyJ-234">
          <mxGeometry width="100" height="100" relative="1" as="geometry">
            <Array as="points" />
          </mxGeometry>
        </mxCell>
        <mxCell id="SbUpuCttrVF5YKWX0RyJ-241" value="1..1" style="text;html=1;resizable=0;labelBackgroundColor=default;align=center;verticalAlign=middle;fontColor=#3d64ac;fontSize=13.3;fontFamily=Tahoma;" vertex="1" parent="SbUpuCttrVF5YKWX0RyJ-240">
          <mxGeometry x="-0.52" relative="1" as="geometry">
            <mxPoint as="offset" />
          </mxGeometry>
        </mxCell>
        <mxCell id="SbUpuCttrVF5YKWX0RyJ-242" value="&lt;div style=&quot;display: flex; justify-content: center; text-align: center; align-items: baseline; font-size: 0; line-height: 1.25;margin-top: -2px;&quot;&gt;&lt;span&gt;&lt;span style=&quot;font-size: 13.3px; color: rgb(61, 100, 172);&quot;&gt;1..&lt;/span&gt;&lt;span style=&quot;font-size: 13.3px; color: rgb(61, 100, 172);&quot;&gt;*&lt;/span&gt;&lt;/span&gt;&lt;/div&gt;" style="text;html=1;resizable=0;labelBackgroundColor=default;align=center;verticalAlign=middle;fontFamily=Tahoma;" vertex="1" parent="SbUpuCttrVF5YKWX0RyJ-240">
          <mxGeometry x="0.52" relative="1" as="geometry">
            <mxPoint as="offset" />
          </mxGeometry>
        </mxCell>
        <mxCell id="SbUpuCttrVF5YKWX0RyJ-243" value="" style="html=1;jettySize=18;whiteSpace=wrap;overflow=block;blockSpacing=1;fontSize=13;fontFamily=Tahoma;strokeColor=#bdd0e9;strokeWidth=1.7;rounded=1;arcSize=2.22;edgeStyle=orthogonalEdgeStyle;startArrow=none;endArrow=none;exitX=0.668;exitY=1.003;exitPerimeter=0;entryX=-0.004;entryY=0.668;entryPerimeter=0;lucidId=bYvorDsfgRTf;" edge="1" parent="SbUpuCttrVF5YKWX0RyJ-1" source="SbUpuCttrVF5YKWX0RyJ-147" target="SbUpuCttrVF5YKWX0RyJ-234">
          <mxGeometry width="100" height="100" relative="1" as="geometry">
            <Array as="points" />
          </mxGeometry>
        </mxCell>
        <mxCell id="SbUpuCttrVF5YKWX0RyJ-244" value="1..1" style="text;html=1;resizable=0;labelBackgroundColor=default;align=center;verticalAlign=middle;fontColor=#3d64ac;fontSize=13.3;fontFamily=Tahoma;" vertex="1" parent="SbUpuCttrVF5YKWX0RyJ-243">
          <mxGeometry x="-0.9232764536644786" relative="1" as="geometry">
            <mxPoint as="offset" />
          </mxGeometry>
        </mxCell>
        <mxCell id="SbUpuCttrVF5YKWX0RyJ-245" value="1..*" style="text;html=1;resizable=0;labelBackgroundColor=default;align=center;verticalAlign=middle;fontColor=#3d64ac;fontSize=13.3;fontFamily=Tahoma;" vertex="1" parent="SbUpuCttrVF5YKWX0RyJ-243">
          <mxGeometry x="0.8" relative="1" as="geometry">
            <mxPoint as="offset" />
          </mxGeometry>
        </mxCell>
        <mxCell id="SbUpuCttrVF5YKWX0RyJ-246" value="" style="html=1;jettySize=18;whiteSpace=wrap;fontSize=13;strokeColor=#bdd0e9;strokeWidth=1.7;rounded=1;arcSize=2.22;edgeStyle=orthogonalEdgeStyle;startArrow=none;endArrow=none;exitX=0.835;exitY=1.003;exitPerimeter=0;entryX=-0.004;entryY=0.332;entryPerimeter=0;lucidId=bYvoIRAvFg.3;fontFamily=Tahoma;" edge="1" parent="SbUpuCttrVF5YKWX0RyJ-1" source="SbUpuCttrVF5YKWX0RyJ-144" target="SbUpuCttrVF5YKWX0RyJ-234">
          <mxGeometry width="100" height="100" relative="1" as="geometry">
            <Array as="points">
              <mxPoint x="3063" y="-1039" />
              <mxPoint x="3133" y="-1039" />
              <mxPoint x="3133" y="-796" />
            </Array>
          </mxGeometry>
        </mxCell>
        <mxCell id="SbUpuCttrVF5YKWX0RyJ-247" value="1..1" style="text;html=1;resizable=0;labelBackgroundColor=default;align=center;verticalAlign=middle;fontColor=#3d64ac;fontSize=13.3;fontFamily=Tahoma;" vertex="1" parent="SbUpuCttrVF5YKWX0RyJ-246">
          <mxGeometry x="-0.8501660863321983" relative="1" as="geometry" />
        </mxCell>
        <mxCell id="SbUpuCttrVF5YKWX0RyJ-248" value="1..*" style="text;html=1;resizable=0;labelBackgroundColor=default;align=center;verticalAlign=middle;fontColor=#3d64ac;fontSize=13.3;fontFamily=Tahoma;" vertex="1" parent="SbUpuCttrVF5YKWX0RyJ-246">
          <mxGeometry x="0.8400000000000001" relative="1" as="geometry">
            <mxPoint as="offset" />
          </mxGeometry>
        </mxCell>
        <mxCell id="SbUpuCttrVF5YKWX0RyJ-249" value="" style="html=1;jettySize=18;whiteSpace=wrap;fontSize=13;strokeColor=#bdd0e9;strokeWidth=1.7;rounded=1;arcSize=2.22;edgeStyle=orthogonalEdgeStyle;startArrow=none;endArrow=none;exitX=1.001;exitY=0.667;exitPerimeter=0;entryX=0.5;entryY=-0.009;entryPerimeter=0;lucidId=bYvoTuDKf8z-;fontFamily=Tahoma;" edge="1" parent="SbUpuCttrVF5YKWX0RyJ-1" source="SbUpuCttrVF5YKWX0RyJ-141" target="SbUpuCttrVF5YKWX0RyJ-234">
          <mxGeometry width="100" height="100" relative="1" as="geometry">
            <Array as="points">
              <mxPoint x="3164" y="-1237" />
              <mxPoint x="3164" y="-837" />
              <mxPoint x="3299" y="-837" />
            </Array>
          </mxGeometry>
        </mxCell>
        <mxCell id="SbUpuCttrVF5YKWX0RyJ-250" value="1..1" style="text;html=1;resizable=0;labelBackgroundColor=default;align=center;verticalAlign=middle;fontColor=#3d64ac;fontSize=13.3;fontFamily=Tahoma;" vertex="1" parent="SbUpuCttrVF5YKWX0RyJ-249">
          <mxGeometry x="-0.88" relative="1" as="geometry">
            <mxPoint as="offset" />
          </mxGeometry>
        </mxCell>
        <mxCell id="SbUpuCttrVF5YKWX0RyJ-251" value="1..*" style="text;html=1;resizable=0;labelBackgroundColor=default;align=center;verticalAlign=middle;fontColor=#3d64ac;fontSize=13.3;fontFamily=Tahoma;" vertex="1" parent="SbUpuCttrVF5YKWX0RyJ-249">
          <mxGeometry x="0.8799999999999999" relative="1" as="geometry">
            <mxPoint as="offset" />
          </mxGeometry>
        </mxCell>
        <mxCell id="SbUpuCttrVF5YKWX0RyJ-252" value="" style="group;html=1;fontFamily=Tahoma;" vertex="1" parent="SbUpuCttrVF5YKWX0RyJ-1">
          <mxGeometry x="3488" y="-1457" width="142" height="71" as="geometry" />
        </mxCell>
        <mxCell id="SbUpuCttrVF5YKWX0RyJ-253" value="" style="shape=stencil(nZBLDoAgDERP0z3SIyjew0SURgSD+Lu9kMZoXLhwN9O+tukAlrNpJg1SzDH4QW/URgNYgZTkjA4UkwJUgGXng+6DX1zLfmoymdXo17xh5zmRJ6Q42BWCfc2oJfdAr+Yv+AP9Cb7OJ3H/2JG1HNGz/84klThPVCc=);whiteSpace=wrap;fontSize=13;strokeColor=#F4F7FB;fillOpacity=100;strokeWidth=1.3;spacing=0;rounded=1;absoluteArcSize=1;arcSize=1.2;fontFamily=Tahoma;" vertex="1" parent="SbUpuCttrVF5YKWX0RyJ-252">
          <mxGeometry width="142" height="71" relative="1" as="geometry" />
        </mxCell>
        <mxCell id="SbUpuCttrVF5YKWX0RyJ-254" value="Patient" style="strokeColor=none;fillColor=none;overflow=visible;whiteSpace=wrap;fontSize=23.3;fontFamily=Tahoma;fontColor=#bdd0e9;align=center;spacing=0;fillOpacity=100;rounded=1;absoluteArcSize=1;arcSize=1.2;strokeWidth=1.3;" vertex="1" parent="SbUpuCttrVF5YKWX0RyJ-252">
          <mxGeometry x="0.047" y="0.094" width="128.65200000000002" height="57.652" relative="1" as="geometry" />
        </mxCell>
        <mxCell id="SbUpuCttrVF5YKWX0RyJ-255" value="" style="html=1;jettySize=18;whiteSpace=wrap;fontSize=13;strokeColor=#bdd0e9;strokeWidth=1.7;rounded=1;arcSize=2.22;edgeStyle=orthogonalEdgeStyle;startArrow=none;endArrow=none;exitX=0.835;exitY=-0.003;exitPerimeter=0;entryX=0.67;entryY=1.009;entryPerimeter=0;lucidId=bYvouWlG0VHU;fontFamily=Tahoma;" edge="1" parent="SbUpuCttrVF5YKWX0RyJ-1" source="SbUpuCttrVF5YKWX0RyJ-192" target="SbUpuCttrVF5YKWX0RyJ-252">
          <mxGeometry width="100" height="100" relative="1" as="geometry">
            <Array as="points" />
          </mxGeometry>
        </mxCell>
        <mxCell id="SbUpuCttrVF5YKWX0RyJ-256" value="1..*" style="text;html=1;resizable=0;labelBackgroundColor=default;align=center;verticalAlign=middle;fontColor=#3d64ac;fontSize=13.3;fontFamily=Tahoma;" vertex="1" parent="SbUpuCttrVF5YKWX0RyJ-255">
          <mxGeometry x="-0.9473549251002191" relative="1" as="geometry">
            <mxPoint as="offset" />
          </mxGeometry>
        </mxCell>
        <mxCell id="SbUpuCttrVF5YKWX0RyJ-257" value="1..1" style="text;html=1;resizable=0;labelBackgroundColor=default;align=center;verticalAlign=middle;fontColor=#3d64ac;fontSize=13.3;fontFamily=Tahoma;" vertex="1" parent="SbUpuCttrVF5YKWX0RyJ-255">
          <mxGeometry x="0.8799999999999999" relative="1" as="geometry">
            <mxPoint as="offset" />
          </mxGeometry>
        </mxCell>
        <mxCell id="SbUpuCttrVF5YKWX0RyJ-258" value="" style="html=1;jettySize=18;whiteSpace=wrap;fontSize=13;strokeColor=#bdd0e9;strokeWidth=1.7;rounded=1;arcSize=2.22;edgeStyle=orthogonalEdgeStyle;startArrow=none;endArrow=none;exitX=0.33;exitY=1.009;exitPerimeter=0;entryX=1.001;entryY=0.333;entryPerimeter=0;lucidId=bYvoGj0YyJox;fontFamily=Tahoma;" edge="1" parent="SbUpuCttrVF5YKWX0RyJ-1" source="SbUpuCttrVF5YKWX0RyJ-252" target="SbUpuCttrVF5YKWX0RyJ-141">
          <mxGeometry width="100" height="100" relative="1" as="geometry">
            <Array as="points" />
          </mxGeometry>
        </mxCell>
        <mxCell id="SbUpuCttrVF5YKWX0RyJ-259" value="1..1" style="text;html=1;resizable=0;labelBackgroundColor=default;align=center;verticalAlign=middle;fontColor=#3d64ac;fontSize=13.3;fontFamily=Tahoma;" vertex="1" parent="SbUpuCttrVF5YKWX0RyJ-258">
          <mxGeometry x="-0.88" relative="1" as="geometry">
            <mxPoint as="offset" />
          </mxGeometry>
        </mxCell>
        <mxCell id="SbUpuCttrVF5YKWX0RyJ-260" value="1..1" style="text;html=1;resizable=0;labelBackgroundColor=default;align=center;verticalAlign=middle;fontColor=#3d64ac;fontSize=13.3;fontFamily=Tahoma;" vertex="1" parent="SbUpuCttrVF5YKWX0RyJ-258">
          <mxGeometry x="0.8799999999999999" relative="1" as="geometry">
            <mxPoint as="offset" />
          </mxGeometry>
        </mxCell>
        <mxCell id="SbUpuCttrVF5YKWX0RyJ-261" value="" style="html=1;jettySize=18;whiteSpace=wrap;fontSize=13;strokeColor=#bdd0e9;strokeWidth=1.7;rounded=1;arcSize=2.22;edgeStyle=orthogonalEdgeStyle;startArrow=none;endArrow=none;exitX=-0.004;exitY=0.5;exitPerimeter=0;entryX=1.001;entryY=0.5;entryPerimeter=0;lucidId=bYvoIh_jgvlN;fontFamily=Tahoma;" edge="1" parent="SbUpuCttrVF5YKWX0RyJ-1" source="SbUpuCttrVF5YKWX0RyJ-252" target="SbUpuCttrVF5YKWX0RyJ-156">
          <mxGeometry width="100" height="100" relative="1" as="geometry">
            <Array as="points" />
          </mxGeometry>
        </mxCell>
        <mxCell id="SbUpuCttrVF5YKWX0RyJ-262" value="1..1" style="text;html=1;resizable=0;labelBackgroundColor=default;align=center;verticalAlign=middle;fontColor=#3d64ac;fontSize=13.3;fontFamily=Tahoma;" vertex="1" parent="SbUpuCttrVF5YKWX0RyJ-261">
          <mxGeometry x="-0.84" relative="1" as="geometry">
            <mxPoint as="offset" />
          </mxGeometry>
        </mxCell>
        <mxCell id="SbUpuCttrVF5YKWX0RyJ-263" value="1..1" style="text;html=1;resizable=0;labelBackgroundColor=default;align=center;verticalAlign=middle;fontColor=#3d64ac;fontSize=13.3;fontFamily=Tahoma;" vertex="1" parent="SbUpuCttrVF5YKWX0RyJ-261">
          <mxGeometry x="0.8400000000000001" relative="1" as="geometry">
            <mxPoint as="offset" />
          </mxGeometry>
        </mxCell>
        <mxCell id="SbUpuCttrVF5YKWX0RyJ-264" value="" style="group;html=1;fontFamily=Tahoma;" vertex="1" parent="SbUpuCttrVF5YKWX0RyJ-1">
          <mxGeometry x="2360" y="-1640" width="537" height="47" as="geometry" />
        </mxCell>
        <mxCell id="SbUpuCttrVF5YKWX0RyJ-265" value="" style="shape=stencil(nZBLDoAgDERP0z3SIyjew0SURgSD+Lu9kMZoXLhwN9O+tukAlrNpJg1SzDH4QW/URgNYgZTkjA4UkwJUgGXng+6DX1zLfmoymdXo17xh5zmRJ6Q42BWCfc2oJfdAr+Yv+AP9Cb7OJ3H/2JG1HNGz/84klThPVCc=);whiteSpace=wrap;fontSize=13;fillOpacity=0;fillColor=#000000;strokeWidth=0.4;align=left;spacing=0;rounded=1;absoluteArcSize=1;arcSize=0.4;fontFamily=Tahoma;" vertex="1" parent="SbUpuCttrVF5YKWX0RyJ-264">
          <mxGeometry width="537" height="47" relative="1" as="geometry" />
        </mxCell>
        <mxCell id="SbUpuCttrVF5YKWX0RyJ-266" value="Pathology Reporting – Combined logical data model with FHIR resource names (Core)" style="strokeColor=none;fillColor=none;overflow=visible;whiteSpace=wrap;fontSize=20;fontFamily=Tahoma;align=left;spacing=0;fillOpacity=0;rounded=1;absoluteArcSize=1;arcSize=0.4;strokeWidth=0.4;" vertex="1" parent="SbUpuCttrVF5YKWX0RyJ-264">
          <mxGeometry x="0.012" y="0.141" width="523.5749999999999" height="33.745999999999995" relative="1" as="geometry" />
        </mxCell>
        <UserObject label="Test Report Filing Observation" Cost="" Process_Number="" Owner="" Function="" Start_Date="" End_Date="" Status="" id="SbUpuCttrVF5YKWX0RyJ-267">
          <mxCell style="html=1;overflow=block;blockSpacing=1;whiteSpace=wrap;fontSize=23.3;fontFamily=Tahoma;fontColor=#feffff;align=center;spacing=3.3;strokeColor=#c8c8c8;fillOpacity=100;rounded=1;absoluteArcSize=1;arcSize=0.4;fillColor=#4672C4;strokeWidth=0.4;lucidId=bYvoYmMHdHzl;" vertex="1" parent="SbUpuCttrVF5YKWX0RyJ-1">
            <mxGeometry x="3228" y="-1583" width="142" height="86" as="geometry" />
          </mxCell>
        </UserObject>
        <mxCell id="SbUpuCttrVF5YKWX0RyJ-268" value="" style="html=1;jettySize=18;whiteSpace=wrap;fontSize=13;strokeColor=#4672C4;strokeWidth=1.7;rounded=1;arcSize=2.22;edgeStyle=orthogonalEdgeStyle;startArrow=none;endArrow=none;exitX=0.333;exitY=1.002;exitPerimeter=0;entryX=0.835;entryY=-0.002;entryPerimeter=0;lucidId=bYvohmk~qklj;fontFamily=Tahoma;" edge="1" parent="SbUpuCttrVF5YKWX0RyJ-1" source="SbUpuCttrVF5YKWX0RyJ-267" target="SbUpuCttrVF5YKWX0RyJ-141">
          <mxGeometry width="100" height="100" relative="1" as="geometry">
            <Array as="points">
              <mxPoint x="3275" y="-1397" />
              <mxPoint x="3152" y="-1397" />
              <mxPoint x="3152" y="-1310" />
              <mxPoint x="3064" y="-1310" />
            </Array>
          </mxGeometry>
        </mxCell>
        <mxCell id="SbUpuCttrVF5YKWX0RyJ-269" value="0..*" style="text;html=1;resizable=0;labelBackgroundColor=default;align=center;verticalAlign=middle;fontColor=#4672C4;fontSize=13.3;fontFamily=Tahoma;" vertex="1" parent="SbUpuCttrVF5YKWX0RyJ-268">
          <mxGeometry x="-0.9185509777879052" relative="1" as="geometry">
            <mxPoint as="offset" />
          </mxGeometry>
        </mxCell>
        <mxCell id="SbUpuCttrVF5YKWX0RyJ-270" value="0..1" style="text;html=1;resizable=0;labelBackgroundColor=default;align=center;verticalAlign=middle;fontColor=#4672C4;fontSize=13.3;fontFamily=Tahoma;" vertex="1" parent="SbUpuCttrVF5YKWX0RyJ-268">
          <mxGeometry x="0.8999999999999999" relative="1" as="geometry">
            <mxPoint as="offset" />
          </mxGeometry>
        </mxCell>
        <mxCell id="SbUpuCttrVF5YKWX0RyJ-271" value="" style="html=1;jettySize=18;whiteSpace=wrap;fontSize=13;strokeColor=#4672C4;strokeWidth=1.7;rounded=1;arcSize=2.22;edgeStyle=orthogonalEdgeStyle;startArrow=none;endArrow=none;exitX=0.667;exitY=1.002;exitPerimeter=0;entryX=0.835;entryY=-0.003;entryPerimeter=0;lucidId=bYvo9LFucXu.;fontFamily=Tahoma;" edge="1" parent="SbUpuCttrVF5YKWX0RyJ-1" source="SbUpuCttrVF5YKWX0RyJ-267" target="SbUpuCttrVF5YKWX0RyJ-144">
          <mxGeometry width="100" height="100" relative="1" as="geometry">
            <Array as="points">
              <mxPoint x="3323" y="-1312" />
              <mxPoint x="3192" y="-1312" />
              <mxPoint x="3192" y="-1140" />
              <mxPoint x="3064" y="-1140" />
            </Array>
          </mxGeometry>
        </mxCell>
        <mxCell id="SbUpuCttrVF5YKWX0RyJ-272" value="0..*" style="text;html=1;resizable=0;labelBackgroundColor=default;align=center;verticalAlign=middle;fontColor=#4672C4;fontSize=13.3;fontFamily=Tahoma;" vertex="1" parent="SbUpuCttrVF5YKWX0RyJ-271">
          <mxGeometry x="-0.9441695817197108" relative="1" as="geometry">
            <mxPoint as="offset" />
          </mxGeometry>
        </mxCell>
        <mxCell id="SbUpuCttrVF5YKWX0RyJ-273" value="0..1" style="text;html=1;resizable=0;labelBackgroundColor=default;align=center;verticalAlign=middle;fontColor=#4672C4;fontSize=13.3;fontFamily=Tahoma;" vertex="1" parent="SbUpuCttrVF5YKWX0RyJ-271">
          <mxGeometry x="0.9199999999999999" relative="1" as="geometry">
            <mxPoint as="offset" />
          </mxGeometry>
        </mxCell>
        <mxCell id="SbUpuCttrVF5YKWX0RyJ-274" value="" style="html=1;jettySize=18;whiteSpace=wrap;fontSize=13;strokeColor=#4672C4;strokeWidth=1.7;rounded=1;arcSize=2.22;edgeStyle=orthogonalEdgeStyle;startArrow=none;endArrow=none;exitX=1.001;exitY=0.5;exitPerimeter=0;entryX=1.001;entryY=0.5;entryPerimeter=0;lucidId=bYvo~jACEMfw;fontFamily=Tahoma;" edge="1" parent="SbUpuCttrVF5YKWX0RyJ-1" source="SbUpuCttrVF5YKWX0RyJ-267" target="SbUpuCttrVF5YKWX0RyJ-147">
          <mxGeometry width="100" height="100" relative="1" as="geometry">
            <Array as="points" />
          </mxGeometry>
        </mxCell>
        <mxCell id="SbUpuCttrVF5YKWX0RyJ-275" value="0..*" style="text;html=1;resizable=0;labelBackgroundColor=default;align=center;verticalAlign=middle;fontColor=#4672C4;fontSize=13.3;fontFamily=Tahoma;" vertex="1" parent="SbUpuCttrVF5YKWX0RyJ-274">
          <mxGeometry x="-0.92" relative="1" as="geometry">
            <mxPoint as="offset" />
          </mxGeometry>
        </mxCell>
        <mxCell id="SbUpuCttrVF5YKWX0RyJ-276" value="0..1" style="text;html=1;resizable=0;labelBackgroundColor=default;align=center;verticalAlign=middle;fontColor=#4672C4;fontSize=13.3;fontFamily=Tahoma;" vertex="1" parent="SbUpuCttrVF5YKWX0RyJ-274">
          <mxGeometry x="0.9611443847277927" relative="1" as="geometry">
            <mxPoint as="offset" />
          </mxGeometry>
        </mxCell>
        <mxCell id="SbUpuCttrVF5YKWX0RyJ-277" value="" style="html=1;jettySize=18;whiteSpace=wrap;fontSize=13;strokeColor=#4672C4;strokeWidth=1.7;rounded=1;arcSize=2.22;edgeStyle=orthogonalEdgeStyle;startArrow=none;endArrow=none;exitX=-0.001;exitY=0.667;exitPerimeter=0;lucidId=bYvo483LUdrh;fontFamily=Tahoma;" edge="1" parent="SbUpuCttrVF5YKWX0RyJ-1" source="SbUpuCttrVF5YKWX0RyJ-141">
          <mxGeometry width="100" height="100" relative="1" as="geometry">
            <Array as="points">
              <mxPoint x="2921" y="-926" />
            </Array>
            <mxPoint x="2945" y="-926" as="targetPoint" />
          </mxGeometry>
        </mxCell>
        <mxCell id="SbUpuCttrVF5YKWX0RyJ-278" value="0..1" style="text;html=1;resizable=0;labelBackgroundColor=default;align=center;verticalAlign=middle;fontColor=#4672c4;fontSize=13.3;fontFamily=Tahoma;" vertex="1" parent="SbUpuCttrVF5YKWX0RyJ-277">
          <mxGeometry x="-0.8" relative="1" as="geometry">
            <mxPoint as="offset" />
          </mxGeometry>
        </mxCell>
        <mxCell id="SbUpuCttrVF5YKWX0RyJ-279" value="0..*" style="text;html=1;resizable=0;labelBackgroundColor=default;align=center;verticalAlign=middle;fontColor=#4672c4;fontSize=13.3;fontFamily=Tahoma;" vertex="1" parent="SbUpuCttrVF5YKWX0RyJ-277">
          <mxGeometry x="0.924185353492752" relative="1" as="geometry">
            <mxPoint x="-13.779966796440931" as="offset" />
          </mxGeometry>
        </mxCell>
      </root>
    </mxGraphModel>
  </diagram>
</mxfile>
